<svg width="35" height="35" viewBox="0 0 35 35" fill="none" xmlns="http://www.w3.org/2000/svg">
<g clip-path="url(#clip0)">
<path d="M33.1684 17.6329L32.3499 17.2316C32.3559 16.6534 32.3469 16.1282 32.3499 15.6338C32.3499 13.0899 31.6973 10.591 30.4601 8.38127C30.7493 7.96428 30.7636 7.4079 30.4703 6.96903C29.383 5.34194 28.0189 3.94721 26.4157 2.82352C25.3657 2.08756 24.2286 1.48299 23.0361 1.02648C22.7716 0.925244 22.4752 1.05759 22.374 1.322C22.2727 1.58648 22.4051 1.88289 22.6695 1.98413C23.7835 2.41056 24.846 2.97548 25.8271 3.66324C27.3259 4.71379 28.6013 6.01774 29.6177 7.53881C29.6818 7.63472 29.6668 7.76104 29.5821 7.83918C29.5044 7.9007 27.7922 9.51146 27.6886 9.57414C27.6365 9.60019 27.5863 9.59957 27.5567 9.59561C27.5149 9.58993 27.4369 9.56772 27.3839 9.48254C26.7108 8.40062 25.8704 7.44003 24.886 6.62731C22.8008 4.90574 20.1644 3.9576 17.4626 3.9576C14.6215 3.9576 11.8817 4.99406 9.74763 6.87613C8.90763 7.61688 8.1792 8.47178 7.58242 9.41691C7.53313 9.49491 7.45848 9.51412 7.41829 9.51856C7.37625 9.52335 7.29545 9.52082 7.22599 9.4513L5.44585 7.67108C5.36655 7.59172 5.35541 7.46669 5.41939 7.37365C6.17415 6.27683 7.07506 5.28671 8.0971 4.43078C10.7196 2.2348 14.0457 1.02539 17.4627 1.02539C18.4025 1.02539 19.3429 1.11563 20.2579 1.29363C20.5358 1.34771 20.805 1.16621 20.859 0.888262C20.9131 0.610313 20.7316 0.341182 20.4537 0.287109C19.4744 0.0965918 18.468 0 17.4627 0C13.8054 0 10.2456 1.29445 7.4388 3.64479C6.34566 4.56025 5.382 5.61935 4.57468 6.79253C4.26549 7.24192 4.28463 7.83125 4.60229 8.25747C4.09315 9.13083 3.6726 10.0514 3.35091 10.9996C3.25992 11.2677 3.40361 11.5588 3.67172 11.6498C3.72634 11.6683 3.78184 11.6771 3.83646 11.6771C4.05009 11.6771 4.24949 11.5425 4.32195 11.329C4.59129 10.5351 4.93595 9.76227 5.34734 9.02275L6.44219 10.1177C5.57265 11.8578 5.1143 13.7951 5.1143 15.749V26.4229L2.28306 25.0348C1.94954 24.8713 1.734 24.5257 1.734 24.1542V19.4342C1.734 19.0627 1.94954 18.7171 2.28306 18.5536C2.45615 18.461 2.8054 18.3087 3.09442 18.1556C3.40682 17.988 3.6009 17.6636 3.6009 17.3089V15.7552C3.5972 15.0955 3.64273 14.4296 3.73618 13.7761C3.77631 13.4958 3.58155 13.2361 3.30128 13.196C3.02135 13.1558 2.76131 13.3507 2.72118 13.6309C2.62055 14.3342 2.57161 15.0508 2.57551 15.7581V17.2701C2.44726 17.3409 2.02125 17.5334 1.81302 17.6421C1.14146 17.9803 0.708679 18.6813 0.708679 19.4342V24.1542C0.708679 24.914 1.14953 25.6211 1.83169 25.9556L5.25157 27.6322C5.611 28.723 6.63899 29.5128 7.84861 29.5128C9.35628 29.5128 10.5828 28.2863 10.5828 26.7786V17.5566C10.5828 16.0489 9.35628 14.8224 7.84861 14.8224C7.2048 14.8224 6.61267 15.0466 6.14496 15.4203C6.19336 13.7255 6.61486 12.0537 7.3744 10.5451C7.4267 10.5457 7.47927 10.5435 7.53211 10.5376C7.91184 10.4952 8.24626 10.2863 8.44956 9.96427C8.99418 9.10164 9.65918 8.32132 10.426 7.64511C12.3726 5.9284 14.8716 4.98292 17.4627 4.98292C19.9268 4.98292 22.3313 5.84767 24.2333 7.41795C25.1318 8.15985 25.899 9.03663 26.5133 10.0241C26.7141 10.3467 27.0443 10.5609 27.4192 10.6116C27.4758 10.6193 27.5324 10.623 27.5886 10.623C27.6134 10.623 27.6379 10.6211 27.6624 10.6196C28.3985 12.1083 28.8075 13.7539 28.8552 15.4203C28.3875 15.0465 27.7953 14.8223 27.1515 14.8223C25.6438 14.8223 24.4172 16.0489 24.4172 17.5565V19.0941C24.4172 19.3773 24.6468 19.6068 24.9299 19.6068C25.2131 19.6068 25.4426 19.3773 25.4426 19.0941V17.5565C25.4426 16.6143 26.2092 15.8477 27.1515 15.8477C28.0937 15.8477 28.8603 16.6143 28.8603 17.5565V26.7786C28.8603 27.7208 28.0937 28.4873 27.1515 28.4873C26.2092 28.4873 25.4426 27.7208 25.4426 26.7786V21.6792C25.4426 21.3961 25.2131 21.1665 24.9299 21.1665C24.6468 21.1665 24.4172 21.3961 24.4172 21.6792V26.7786C24.4172 28.2862 25.6438 29.5127 27.1515 29.5127C27.7977 29.5127 28.3918 29.2869 28.8603 28.9107V30.132C28.8603 30.5009 28.5601 30.801 28.1913 30.801H22.0484C21.8887 30.328 21.4417 29.9862 20.9156 29.9862H17.0388C16.3792 29.9862 15.8426 30.5229 15.8426 31.1825V33.8037C15.8426 34.4633 16.3792 35 17.0388 35H20.9156C21.4399 35 21.8855 34.6604 22.0466 34.1899H25.3753C25.6584 34.1899 25.888 33.9604 25.888 33.6772C25.888 33.3941 25.6584 33.1646 25.3753 33.1646H22.1119V31.8265H28.1913C29.1255 31.8265 29.8857 31.0663 29.8857 30.1321V27.5649L31.2238 26.9089V31.4615C31.2238 32.4006 30.4598 33.1646 29.5207 33.1646H27.9329C27.6497 33.1646 27.4202 33.3941 27.4202 33.6772C27.4202 33.9604 27.6497 34.1899 27.9329 34.1899H29.5207C31.0252 34.1899 32.2491 32.966 32.2491 31.4615V26.4062L33.1684 25.9556C33.8505 25.6211 34.2914 24.9141 34.2914 24.1542V19.4342C34.2914 18.6744 33.8505 17.9674 33.1684 17.6329V17.6329ZM7.84854 15.8478C8.79081 15.8478 9.55739 16.6144 9.55739 17.5567V26.7787C9.55739 27.7209 8.79081 28.4875 7.84854 28.4875C6.90628 28.4875 6.1397 27.7209 6.1397 26.7787V17.5566C6.1397 16.6143 6.90628 15.8478 7.84854 15.8478V15.8478ZM16.8679 33.8037V31.1826C16.8679 31.0884 16.9446 31.0117 17.0388 31.0117H18.4644V33.9746H17.0388C16.9446 33.9746 16.8679 33.8979 16.8679 33.8037V33.8037ZM21.0864 33.8037C21.0864 33.8979 21.0097 33.9746 20.9155 33.9746H19.4899V31.0117H20.9155C21.0097 31.0117 21.0864 31.0884 21.0864 31.1826V33.8037ZM33.266 24.1543C33.266 24.5258 33.0505 24.8714 32.7169 25.0349L29.8857 26.423C29.8857 25.1154 29.8857 16.8139 29.8857 15.7491C29.8857 13.8117 29.4347 11.8888 28.5791 10.16L29.6991 9.12646C30.7625 11.1195 31.3229 13.3524 31.3245 15.6242C31.3208 16.05 31.3311 16.621 31.3238 17.3091C31.3206 17.6485 31.5152 17.9644 31.8198 18.1137L32.717 18.5536C33.0505 18.7171 33.2661 19.0628 33.2661 19.4342V24.1543H33.266Z" fill="black"/>
<path d="M22.1109 15.8297C22.0739 15.386 21.8153 15.0266 21.4519 14.914C21.2806 14.8609 20.8371 14.7932 20.4168 15.3089C20.026 15.7885 18.0622 19.3365 17.6725 20.0428C17.5848 20.2016 17.5876 20.395 17.6798 20.5512C17.7721 20.7074 17.94 20.8032 18.1213 20.8032H21.0818C21.0779 21.3472 21.0738 21.8721 21.0698 22.3379C21.0673 22.621 21.2949 22.8525 21.578 22.8549H21.5826C21.8636 22.8549 22.0927 22.6283 22.0951 22.3466C22.0967 22.1646 22.1017 21.5676 22.1072 20.8031H22.4869C22.77 20.8031 22.9996 20.5736 22.9996 20.2904C22.9996 20.0073 22.77 19.7777 22.4869 19.7777H22.1141C22.1247 18.0569 22.1318 16.0805 22.1109 15.8297V15.8297ZM21.0887 19.7778H18.9919C19.7618 18.3952 20.7253 16.6966 21.0952 16.1246C21.1033 16.6873 21.0981 18.2097 21.0887 19.7778V19.7778Z" fill="black"/>
<path d="M16.8446 22.3878C16.8411 22.1047 16.6114 21.8799 16.3255 21.8816C15.3916 21.8934 14.3907 21.8999 13.7054 21.8969C14.0903 21.3908 14.7198 20.5509 15.6838 19.1734C16.1491 18.4827 16.5038 17.8299 16.5499 17.1013C16.5499 15.8377 15.5219 14.8097 14.2584 14.8097C13.1658 14.8097 12.2202 15.5869 12.0099 16.6577C11.9553 16.9355 12.1363 17.205 12.4141 17.2596C12.692 17.314 12.9615 17.1331 13.016 16.8553C13.1321 16.2642 13.6546 15.8351 14.2584 15.8351C14.9465 15.8351 15.5082 16.387 15.5242 17.0713C15.4851 17.5334 15.232 18.0043 14.8437 18.5854C13.7393 20.1633 13.08 21.0267 12.7258 21.4905C12.3046 22.042 12.1775 22.2085 12.2702 22.5099C12.3226 22.6805 12.4528 22.8117 12.6272 22.8698C12.9839 22.9655 15.1832 22.9122 16.3383 22.9069C16.6215 22.9033 16.8482 22.671 16.8446 22.3878V22.3878Z" fill="black"/>
</g>
<defs>
<clipPath id="clip0">
<rect width="35" height="35" fill="white"/>
</clipPath>
</defs>
</svg>
