<svg width="67" height="45" viewBox="0 0 67 45" fill="none" xmlns="http://www.w3.org/2000/svg">
<path fill-rule="evenodd" clip-rule="evenodd" d="M9.00985 1.42105C7.89028 1.42105 7.00983 2.37793 7.10281 3.49362C7.10444 3.51325 7.10526 3.53294 7.10526 3.55263V15.3947C7.10526 15.7871 6.78715 16.1053 6.39473 16.1053C6.00232 16.1053 5.68421 15.7871 5.68421 15.3947V3.58046C5.54107 1.64965 7.06935 0 9.00985 0H41.4473C43.017 0 44.2895 1.27245 44.2895 2.8421V10.7785C44.9382 10.2584 45.7617 9.94736 46.6579 9.94736H55.9353C56.5527 9.94736 57.1448 10.1926 57.5813 10.6292C57.6191 10.6669 57.6525 10.7088 57.6809 10.7541L65.2143 22.7668C66.0888 24.1613 66.5526 25.7739 66.5526 27.4199V36.0939C66.5526 37.4544 65.8888 38.7293 64.7743 39.5095C64.0735 40 63.2388 40.2631 62.3834 40.2631H59.4473C59.0549 40.2631 58.7368 39.945 58.7368 39.5526C58.7368 39.1602 59.0549 38.8421 59.4473 38.8421H62.3834C62.9473 38.8421 63.4975 38.6687 63.9594 38.3453C64.694 37.8311 65.1316 36.9907 65.1316 36.0939V27.4199C65.1316 26.041 64.743 24.69 64.0104 23.5218L56.5259 11.5871C56.3621 11.4465 56.1527 11.3684 55.9353 11.3684H46.6579C45.3498 11.3684 44.2895 12.4288 44.2895 13.7368V38.8421H47.8421C48.2345 38.8421 48.5526 39.1602 48.5526 39.5526C48.5526 39.945 48.2345 40.2631 47.8421 40.2631H27.2368C26.8444 40.2631 26.5263 39.945 26.5263 39.5526C26.5263 39.1602 26.8444 38.8421 27.2368 38.8421H42.8684V2.8421C42.8684 2.05728 42.2322 1.42105 41.4473 1.42105H9.00985ZM0.236842 19.6579C0.236842 19.2655 0.554955 18.9474 0.947368 18.9474H20.8421C21.2345 18.9474 21.5526 19.2655 21.5526 19.6579C21.5526 20.0503 21.2345 20.3684 20.8421 20.3684H0.947368C0.554955 20.3684 0.236842 20.0503 0.236842 19.6579ZM4.97368 24.8684C4.97368 24.476 5.2918 24.1579 5.68421 24.1579H25.5789C25.9713 24.1579 26.2895 24.476 26.2895 24.8684C26.2895 25.2608 25.9713 25.5789 25.5789 25.5789H5.68421C5.2918 25.5789 4.97368 25.2608 4.97368 24.8684ZM0 29.8421C0 29.4497 0.318113 29.1316 0.710526 29.1316H20.6053C20.9977 29.1316 21.3158 29.4497 21.3158 29.8421C21.3158 30.2345 20.9977 30.5526 20.6053 30.5526H0.710526C0.318113 30.5526 0 30.2345 0 29.8421ZM6.39473 33.8684C6.78715 33.8684 7.10526 34.1865 7.10526 34.5789V36.3181C7.10526 36.9875 7.37118 37.6295 7.84452 38.1028C8.31786 38.5762 8.95985 38.8421 9.62925 38.8421H15.8684C16.2608 38.8421 16.5789 39.1602 16.5789 39.5526C16.5789 39.945 16.2608 40.2631 15.8684 40.2631H9.62925C8.58296 40.2631 7.57952 39.8475 6.83968 39.1077C6.09985 38.3678 5.68421 37.3644 5.68421 36.3181V34.5789C5.68421 34.1865 6.00232 33.8684 6.39473 33.8684Z" fill="black"/>
<path fill-rule="evenodd" clip-rule="evenodd" d="M21.5526 43.5789C24.0379 43.5789 26.0526 41.5642 26.0526 39.0789C26.0526 36.5937 24.0379 34.579 21.5526 34.579C19.0673 34.579 17.0526 36.5937 17.0526 39.0789C17.0526 41.5642 19.0673 43.5789 21.5526 43.5789ZM21.5526 45C24.8227 45 27.4737 42.3491 27.4737 39.0789C27.4737 35.8088 24.8227 33.1579 21.5526 33.1579C18.2825 33.1579 15.6316 35.8088 15.6316 39.0789C15.6316 42.3491 18.2825 45 21.5526 45Z" fill="black"/>
<path fill-rule="evenodd" clip-rule="evenodd" d="M53.7632 43.5789C56.2484 43.5789 58.2632 41.5642 58.2632 39.0789C58.2632 36.5937 56.2484 34.579 53.7632 34.579C51.2779 34.579 49.2632 36.5937 49.2632 39.0789C49.2632 41.5642 51.2779 43.5789 53.7632 43.5789ZM53.7632 45C57.0333 45 59.6842 42.3491 59.6842 39.0789C59.6842 35.8088 57.0333 33.1579 53.7632 33.1579C50.493 33.1579 47.8421 35.8088 47.8421 39.0789C47.8421 42.3491 50.493 45 53.7632 45Z" fill="black"/>
<path d="M16.8896 14H15.8481V7.5752H19.4736V8.46289H16.8896V10.4712H19.311V11.3633H16.8896V14ZM21.6885 10.5635H22.418C22.9072 10.5635 23.2617 10.4727 23.4814 10.291C23.7012 10.1094 23.811 9.83984 23.811 9.48242C23.811 9.11914 23.6924 8.8584 23.4551 8.7002C23.2178 8.54199 22.8604 8.46289 22.3828 8.46289H21.6885V10.5635ZM21.6885 11.4336V14H20.6382V7.5752H22.4531C23.2822 7.5752 23.896 7.73047 24.2944 8.04102C24.6929 8.35156 24.8921 8.82031 24.8921 9.44727C24.8921 10.2471 24.4761 10.8169 23.644 11.1567L25.459 14H24.2637L22.7256 11.4336H21.6885ZM30.0293 14H26.395V7.5752H30.0293V8.46289H27.4453V10.2119H29.8667V11.0908H27.4453V13.1079H30.0293V14ZM35.0566 14H31.4224V7.5752H35.0566V8.46289H32.4727V10.2119H34.894V11.0908H32.4727V13.1079H35.0566V14Z" fill="black"/>
</svg>
