<svg width="38" height="45" viewBox="0 0 38 45" fill="none" xmlns="http://www.w3.org/2000/svg">
<path fill-rule="evenodd" clip-rule="evenodd" d="M34.0851 10.5319H22.5957C21.3267 10.5319 20.2979 11.5607 20.2979 12.8298V41.5532C20.2979 42.8223 21.3267 43.851 22.5957 43.851H34.0851C35.3542 43.851 36.383 42.8223 36.383 41.5532V12.8298C36.383 11.5607 35.3542 10.5319 34.0851 10.5319ZM22.5957 9.38297C20.6921 9.38297 19.1489 10.9262 19.1489 12.8298V41.5532C19.1489 43.4568 20.6921 45 22.5957 45H34.0851C35.9887 45 37.5319 43.4568 37.5319 41.5532V12.8298C37.5319 10.9262 35.9887 9.38297 34.0851 9.38297H22.5957Z" fill="black"/>
<path d="M23.7447 10.1489H32.9362L31.6387 11.6626C31.4205 11.9173 31.1018 12.0638 30.7664 12.0638H25.9145C25.5791 12.0638 25.2604 11.9173 25.0421 11.6626L23.7447 10.1489Z" fill="black"/>
<path fill-rule="evenodd" clip-rule="evenodd" d="M0.19149 2.48936C0.19149 1.11453 1.30602 0 2.68085 0H13.0213C14.3961 0 15.5106 1.11453 15.5106 2.48936V22.0213C15.5106 23.3961 14.3961 24.5106 13.0213 24.5106H2.68085C1.30602 24.5106 0.19149 23.3961 0.19149 22.0213V2.48936ZM2.68085 1.14894C1.94056 1.14894 1.34043 1.74907 1.34043 2.48936V22.0213C1.34043 22.7616 1.94056 23.3617 2.68085 23.3617H13.0213C13.7616 23.3617 14.3617 22.7616 14.3617 22.0213V2.48936C14.3617 1.74907 13.7616 1.14894 13.0213 1.14894H2.68085Z" fill="black"/>
<path fill-rule="evenodd" clip-rule="evenodd" d="M2.48936 4.02127C2.48936 3.28098 3.08949 2.68085 3.82979 2.68085H11.8723C12.6126 2.68085 13.2128 3.28098 13.2128 4.02127V10.5319C13.2128 11.2722 12.6126 11.8723 11.8723 11.8723H3.82979C3.08949 11.8723 2.48936 11.2722 2.48936 10.5319V4.02127ZM3.82979 3.82978C3.72403 3.82978 3.6383 3.91552 3.6383 4.02127V10.5319C3.6383 10.6377 3.72403 10.7234 3.82979 10.7234H11.8723C11.9781 10.7234 12.0638 10.6377 12.0638 10.5319V4.02127C12.0638 3.91552 11.9781 3.82978 11.8723 3.82978H3.82979Z" fill="black"/>
<path fill-rule="evenodd" clip-rule="evenodd" d="M2.48936 14.9362C2.48936 14.6189 2.74656 14.3617 3.06383 14.3617H5.17021C5.48748 14.3617 5.74468 14.6189 5.74468 14.9362C5.74468 15.2534 5.48748 15.5106 5.17021 15.5106H3.06383C2.74656 15.5106 2.48936 15.2534 2.48936 14.9362Z" fill="black"/>
<path fill-rule="evenodd" clip-rule="evenodd" d="M6.31915 14.9362C6.31915 14.6189 6.57635 14.3617 6.89362 14.3617H9C9.31727 14.3617 9.57447 14.6189 9.57447 14.9362C9.57447 15.2534 9.31727 15.5106 9 15.5106H6.89362C6.57635 15.5106 6.31915 15.2534 6.31915 14.9362Z" fill="black"/>
<path fill-rule="evenodd" clip-rule="evenodd" d="M10.1489 14.9362C10.1489 14.6189 10.4061 14.3617 10.7234 14.3617H12.8298C13.1471 14.3617 13.4043 14.6189 13.4043 14.9362C13.4043 15.2534 13.1471 15.5106 12.8298 15.5106H10.7234C10.4061 15.5106 10.1489 15.2534 10.1489 14.9362Z" fill="black"/>
<path fill-rule="evenodd" clip-rule="evenodd" d="M2.48936 17.617C2.48936 17.2997 2.74656 17.0425 3.06383 17.0425H5.17021C5.48748 17.0425 5.74468 17.2997 5.74468 17.617C5.74468 17.9343 5.48748 18.1915 5.17021 18.1915H3.06383C2.74656 18.1915 2.48936 17.9343 2.48936 17.617Z" fill="black"/>
<path fill-rule="evenodd" clip-rule="evenodd" d="M2.48936 17.617C2.48936 17.2997 2.74656 17.0425 3.06383 17.0425H5.17021C5.48748 17.0425 5.74468 17.2997 5.74468 17.617C5.74468 17.9343 5.48748 18.1915 5.17021 18.1915H3.06383C2.74656 18.1915 2.48936 17.9343 2.48936 17.617Z" fill="black"/>
<path fill-rule="evenodd" clip-rule="evenodd" d="M6.31915 17.617C6.31915 17.2997 6.57635 17.0425 6.89362 17.0425H9C9.31727 17.0425 9.57447 17.2997 9.57447 17.617C9.57447 17.9343 9.31727 18.1915 9 18.1915H6.89362C6.57635 18.1915 6.31915 17.9343 6.31915 17.617Z" fill="black"/>
<path fill-rule="evenodd" clip-rule="evenodd" d="M10.1489 17.617C10.1489 17.2997 10.4061 17.0425 10.7234 17.0425H12.8298C13.1471 17.0425 13.4043 17.2997 13.4043 17.617C13.4043 17.9343 13.1471 18.1915 12.8298 18.1915H10.7234C10.4061 18.1915 10.1489 17.9343 10.1489 17.617Z" fill="black"/>
<path fill-rule="evenodd" clip-rule="evenodd" d="M2.48936 20.2979C2.48936 19.9806 2.74656 19.7234 3.06383 19.7234H5.17021C5.48748 19.7234 5.74468 19.9806 5.74468 20.2979C5.74468 20.6151 5.48748 20.8723 5.17021 20.8723H3.06383C2.74656 20.8723 2.48936 20.6151 2.48936 20.2979Z" fill="black"/>
<path fill-rule="evenodd" clip-rule="evenodd" d="M2.48936 20.2979C2.48936 19.9806 2.74656 19.7234 3.06383 19.7234H5.17021C5.48748 19.7234 5.74468 19.9806 5.74468 20.2979C5.74468 20.6151 5.48748 20.8723 5.17021 20.8723H3.06383C2.74656 20.8723 2.48936 20.6151 2.48936 20.2979Z" fill="black"/>
<path fill-rule="evenodd" clip-rule="evenodd" d="M6.31915 20.2979C6.31915 19.9806 6.57635 19.7234 6.89362 19.7234H9C9.31727 19.7234 9.57447 19.9806 9.57447 20.2979C9.57447 20.6151 9.31727 20.8723 9 20.8723H6.89362C6.57635 20.8723 6.31915 20.6151 6.31915 20.2979Z" fill="black"/>
<path fill-rule="evenodd" clip-rule="evenodd" d="M10.1489 20.2979C10.1489 19.9806 10.4061 19.7234 10.7234 19.7234H12.8298C13.1471 19.7234 13.4043 19.9806 13.4043 20.2979C13.4043 20.6151 13.1471 20.8723 12.8298 20.8723H10.7234C10.4061 20.8723 10.1489 20.6151 10.1489 20.2979Z" fill="black"/>
<path fill-rule="evenodd" clip-rule="evenodd" d="M2.48936 14.9362C2.48936 14.6189 2.74656 14.3617 3.06383 14.3617H5.17021C5.48748 14.3617 5.74468 14.6189 5.74468 14.9362C5.74468 15.2534 5.48748 15.5106 5.17021 15.5106H3.06383C2.74656 15.5106 2.48936 15.2534 2.48936 14.9362Z" fill="black"/>
<path fill-rule="evenodd" clip-rule="evenodd" d="M0.574468 29.2979C0.891738 29.2979 1.14894 29.555 1.14894 29.8723V36.9574C1.14894 38.3323 2.26346 39.4468 3.6383 39.4468H10.6376L8.36909 36.753C8.16473 36.5103 8.19579 36.1479 8.43847 35.9435C8.68116 35.7392 9.04356 35.7702 9.24793 36.0129L12.3118 39.6512C12.4956 39.8695 12.4913 40.1896 12.3017 40.4029L9.23787 43.8497C9.02709 44.0869 8.66398 44.1082 8.42685 43.8974C8.18972 43.6866 8.16836 43.3235 8.37915 43.0864L10.5931 40.5957H3.6383C1.62892 40.5957 0 38.9668 0 36.9574V29.8723C0 29.555 0.257198 29.2979 0.574468 29.2979Z" fill="black"/>
</svg>
