<svg width="53" height="45" viewBox="0 0 53 45" fill="none" xmlns="http://www.w3.org/2000/svg">
<path fill-rule="evenodd" clip-rule="evenodd" d="M41.9256 1.42706H4.71074C2.88957 1.42706 1.41322 2.91787 1.41322 4.75687V36.1522C1.41322 37.9912 2.88957 39.482 4.71074 39.482H41.9256C43.7468 39.482 45.2231 37.9912 45.2231 36.1522V4.75687C45.2231 2.91787 43.7468 1.42706 41.9256 1.42706ZM4.71074 0C2.10907 0 0 2.12972 0 4.75687V36.1522C0 38.7794 2.10907 40.9091 4.71074 40.9091H41.9256C44.5273 40.9091 46.6364 38.7794 46.6364 36.1522V4.75687C46.6364 2.12972 44.5273 0 41.9256 0H4.71074Z" fill="black"/>
<path fill-rule="evenodd" clip-rule="evenodd" d="M8.18182 16.0468V0.818176H9.56918V16.0468C9.56918 16.4867 10.0786 16.7014 10.3665 16.3829L12.1605 14.3979C12.8895 13.5913 14.1105 13.5913 14.8395 14.3979L16.6335 16.3829C16.9214 16.7014 17.4308 16.4867 17.4308 16.0468V0.818176H18.8182V16.0468C18.8182 17.8064 16.7805 18.6653 15.6289 17.3911L13.8349 15.4062C13.6526 15.2045 13.3474 15.2045 13.1651 15.4062L11.3711 17.3911C10.2195 18.6653 8.18182 17.8064 8.18182 16.0468Z" fill="black"/>
<path fill-rule="evenodd" clip-rule="evenodd" d="M37.2273 43.6028C44.8152 43.6028 50.9664 37.4516 50.9664 29.8637C50.9664 22.2757 44.8152 16.1245 37.2273 16.1245C29.6393 16.1245 23.4881 22.2757 23.4881 29.8637C23.4881 37.4516 29.6393 43.6028 37.2273 43.6028ZM37.2273 45C45.5869 45 52.3636 38.2232 52.3636 29.8637C52.3636 21.5041 45.5869 14.7273 37.2273 14.7273C28.8677 14.7273 22.0909 21.5041 22.0909 29.8637C22.0909 38.2232 28.8677 45 37.2273 45Z" fill="black"/>
<path fill-rule="evenodd" clip-rule="evenodd" d="M38.7326 21.503C38.9988 21.211 39.4465 21.1945 39.7327 21.466L43.1379 24.6963C43.2785 24.8297 43.36 25.0158 43.3635 25.2117C43.367 25.4076 43.2923 25.5966 43.1566 25.7352L39.7209 29.2429C39.4447 29.5249 38.9966 29.5251 38.7201 29.2433C38.4437 28.9614 38.4435 28.5043 38.7198 28.2223L40.9563 25.9389L30.9771 25.8919C30.5863 25.89 30.2709 25.5653 30.2727 25.1666C30.2745 24.7679 30.5928 24.4462 30.9837 24.448L40.8468 24.4945L38.7689 22.5233C38.4827 22.2518 38.4665 21.795 38.7326 21.503Z" fill="black"/>
<path fill-rule="evenodd" clip-rule="evenodd" d="M34.9037 38.2242C34.6376 38.5162 34.1898 38.5328 33.9036 38.2613L30.4985 35.031C30.3578 34.8975 30.2764 34.7115 30.2728 34.5155C30.2693 34.3196 30.344 34.1306 30.4798 33.992L33.9154 30.4844C34.1917 30.2023 34.6398 30.2021 34.9162 30.484C35.1927 30.7658 35.1929 31.2229 34.9166 31.5049L32.68 33.7884L42.6592 33.8354C43.0501 33.8372 43.3654 34.1619 43.3636 34.5606C43.3618 34.9593 43.0435 35.2811 42.6527 35.2792L32.7896 35.2327L34.8674 37.2039C35.1536 37.4754 35.1699 37.9322 34.9037 38.2242Z" fill="black"/>
</svg>
