<svg width="51" height="45" viewBox="0 0 51 45" fill="none" xmlns="http://www.w3.org/2000/svg">
<path fill-rule="evenodd" clip-rule="evenodd" d="M45.8491 1.27358H30.9906C29.3493 1.27358 28.0189 2.60406 28.0189 4.24528V40.7547C28.0189 42.3959 29.3493 43.7264 30.9906 43.7264H45.8491C47.4903 43.7264 48.8208 42.3959 48.8208 40.7547V4.24528C48.8208 2.60406 47.4903 1.27358 45.8491 1.27358ZM30.9906 0C28.646 0 26.7453 1.90068 26.7453 4.24528V40.7547C26.7453 43.0993 28.646 45 30.9906 45H45.8491C48.1937 45 50.0943 43.0993 50.0943 40.7547V4.24528C50.0943 1.90068 48.1937 0 45.8491 0H30.9906Z" fill="black"/>
<path d="M32.2642 0.84906H44.1509L42.4102 2.93797C42.1682 3.22834 41.8098 3.39623 41.4318 3.39623H34.9833C34.6053 3.39623 34.2469 3.22834 34.0049 2.93797L32.2642 0.84906Z" fill="black"/>
<path fill-rule="evenodd" clip-rule="evenodd" d="M5.09434 11.25C5.09434 10.8983 5.37944 10.6132 5.73113 10.6132H21.8632C22.2149 10.6132 22.5 10.8983 22.5 11.25C22.5 11.6017 22.2149 11.8868 21.8632 11.8868H5.73113C5.37944 11.8868 5.09434 11.6017 5.09434 11.25Z" fill="black"/>
<path fill-rule="evenodd" clip-rule="evenodd" d="M5.09434 15.0708C5.09434 14.7191 5.37944 14.434 5.73113 14.434H17.4057C17.7574 14.434 18.0425 14.7191 18.0425 15.0708C18.0425 15.4224 17.7574 15.7075 17.4057 15.7075H5.73113C5.37944 15.7075 5.09434 15.4224 5.09434 15.0708Z" fill="black"/>
<path fill-rule="evenodd" clip-rule="evenodd" d="M26.7453 5.94342H4.24528C2.60406 5.94342 1.27358 7.27389 1.27358 8.91511V35.6604C1.27358 37.3016 2.60406 38.6321 4.24528 38.6321H26.7453V5.94342ZM4.24528 4.66983C1.90068 4.66983 0 6.57051 0 8.91511V35.6604C0 38.005 1.90068 39.9057 4.24528 39.9057H28.0189V4.66983H4.24528Z" fill="black"/>
<path fill-rule="evenodd" clip-rule="evenodd" d="M7.64151 28.8679C7.9932 28.8679 8.2783 29.153 8.2783 29.5047V34.7365C8.2783 34.9047 8.46464 35.0061 8.60588 34.9147L10.4285 33.7353C10.9324 33.4093 11.5829 33.4184 12.0775 33.7584L13.6769 34.858C13.8178 34.9548 14.0094 34.854 14.0094 34.6831V29.5047C14.0094 29.153 14.2945 28.8679 14.6462 28.8679C14.9979 28.8679 15.283 29.153 15.283 29.5047V34.6831C15.283 35.8795 13.9413 36.5853 12.9554 35.9075L11.356 34.8079C11.2853 34.7593 11.1924 34.758 11.1204 34.8046L9.29775 35.984C8.30913 36.6237 7.00471 35.914 7.00471 34.7365V29.5047C7.00471 29.153 7.28982 28.8679 7.64151 28.8679Z" fill="black"/>
<path fill-rule="evenodd" clip-rule="evenodd" d="M11.6011 20.6082C11.3806 20.4366 11.0739 20.4289 10.845 20.5891L9.82142 21.3056C9.50032 21.5304 9.11785 21.651 8.72589 21.651H8.2783C7.92661 21.651 7.6415 21.9361 7.6415 22.2878V22.8649C7.6415 23.3328 7.4698 23.7844 7.15896 24.1341L6.53465 24.8364C6.32019 25.0777 6.32019 25.4413 6.53465 25.6825L7.15896 26.3849C7.4698 26.7346 7.6415 27.1862 7.6415 27.6541V28.2312C7.6415 28.5829 7.9266 28.868 8.2783 28.868H8.6806C9.1144 28.868 9.53527 29.0156 9.87401 29.2866L10.809 30.0345C11.0512 30.2284 11.3979 30.2194 11.6298 30.0132L12.3754 29.3505C12.7251 29.0397 13.1767 28.868 13.6446 28.868H14.2217C14.5734 28.868 14.8585 28.5829 14.8585 28.2312V27.6541C14.8585 27.1862 15.0302 26.7346 15.341 26.3849L15.9653 25.6825C16.1798 25.4413 16.1798 25.0777 15.9653 24.8364L15.341 24.1341C15.0302 23.7844 14.8585 23.3328 14.8585 22.8649V22.2878C14.8585 21.9361 14.5734 21.651 14.2217 21.651H13.5973C13.1725 21.651 12.7598 21.5094 12.4245 21.2486L11.6011 20.6082ZM10.1146 19.5458C10.8014 19.065 11.7213 19.0882 12.383 19.6029L13.2064 20.2433C13.3182 20.3302 13.4557 20.3774 13.5973 20.3774H14.2217C15.2768 20.3774 16.1321 21.2327 16.1321 22.2878V22.8649C16.1321 23.0208 16.1893 23.1714 16.2929 23.2879L16.9172 23.9903C17.5606 24.7141 17.5606 25.8048 16.9172 26.5287L16.2929 27.231C16.1893 27.3476 16.1321 27.4981 16.1321 27.6541V28.2312C16.1321 29.2862 15.2768 30.1415 14.2217 30.1415H13.6446C13.4886 30.1415 13.3381 30.1988 13.2215 30.3024L12.4759 30.9651C11.7803 31.5835 10.7402 31.6105 10.0134 31.029L9.0784 30.2811C8.96549 30.1908 8.8252 30.1415 8.6806 30.1415H8.2783C7.22322 30.1415 6.36792 29.2862 6.36792 28.2312V27.6541C6.36792 27.4981 6.31068 27.3476 6.20707 27.231L5.58276 26.5287C4.93937 25.8048 4.93937 24.7141 5.58276 23.9903L6.20707 23.2879C6.31068 23.1714 6.36792 23.0208 6.36792 22.8649V22.2878C6.36792 21.2327 7.22322 20.3774 8.2783 20.3774H8.72589C8.85654 20.3774 8.98403 20.3372 9.09107 20.2623L10.1146 19.5458Z" fill="black"/>
</svg>
