<svg width="39" height="31" viewBox="0 0 39 31" fill="none" xmlns="http://www.w3.org/2000/svg">
<path d="M38.282 7.18005V7.1261C38.2675 7.08858 38.2499 7.0525 38.2292 7.01819L38.1895 6.96423L38.1103 6.87655L38.0641 6.83609L37.9783 6.79562H37.9452L23.6045 0.806517C23.4457 0.740927 23.2681 0.740927 23.1093 0.806517L8.80156 6.69445H8.76855L8.68272 6.73492L8.6365 6.77539L8.55727 6.86306L8.51765 6.91702C8.49694 6.95133 8.47927 6.98742 8.46483 7.02493V7.07889C8.4579 7.13487 8.4579 7.19152 8.46483 7.2475V12.6431H0.891701C0.527075 12.6431 0.231445 12.9451 0.231445 13.3175C0.231445 13.69 0.527075 13.992 0.891701 13.992V14.0797H8.3856V16.3863H5.81721C5.45258 16.3863 5.15695 16.6883 5.15695 17.0607C5.15695 17.4332 5.45258 17.7352 5.81721 17.7352H8.3856V20.0418H2.29805C1.93342 20.0418 1.63779 20.3438 1.63779 20.7162C1.63779 21.0887 1.93342 21.3907 2.29805 21.3907H8.3856V24.2099C8.38692 24.4822 8.54844 24.7269 8.79496 24.8304L23.1093 30.9004C23.1809 30.9294 23.2569 30.9453 23.3338 30.9476C23.4107 30.9453 23.4867 30.9294 23.5583 30.9004L37.8726 24.8304C38.1191 24.7269 38.2807 24.4822 38.282 24.2099V7.34867C38.2889 7.29269 38.2889 7.23603 38.282 7.18005ZM23.3536 2.17565L28.7809 4.39458L16.4341 9.72947L10.7889 7.32843L23.3536 2.17565ZM22.6735 29.275L9.70611 23.758V21.3839H12.4462C12.8108 21.3839 13.1064 21.082 13.1064 20.7095C13.1064 20.337 12.8108 20.035 12.4462 20.035H9.70611V17.7284H15.9785C16.3432 17.7284 16.6388 17.4264 16.6388 17.054C16.6388 16.6815 16.3432 16.3795 15.9785 16.3795H9.70611V14.0797H11.0266C11.3912 14.0797 11.6869 13.7777 11.6869 13.4052C11.6869 13.0327 11.3912 12.7308 11.0266 12.7308H9.70611V8.33336L14.7505 10.4646L22.6735 13.8369V29.275ZM23.3602 12.697L18.1442 10.4646L30.5042 5.1095L35.9117 7.33518L28.0348 10.7074L23.3602 12.697ZM24.0138 29.275V13.8369L27.7311 12.2587L36.9747 8.31987L37.0077 23.758L24.0138 29.275Z" fill="black"/>
</svg>
