<svg width="35" height="35" viewBox="0 0 35 35" fill="none" xmlns="http://www.w3.org/2000/svg">
<path d="M24.7412 26.5692C24.7018 26.0519 24.2907 25.6409 23.7734 25.6014C23.1949 25.6455 22.7617 26.1502 22.8057 26.7287C22.8451 27.2459 23.2561 27.657 23.7734 27.6964C24.352 27.6524 24.7852 27.1476 24.7412 26.5692Z" fill="black"/>
<path d="M27.3037 25.6704C27.2643 25.1532 26.8533 24.7422 26.336 24.7027C25.7574 24.7468 25.3242 25.2515 25.3683 25.83C25.4077 26.3472 25.8187 26.7582 26.336 26.7977C26.9145 26.7537 27.3477 26.2489 27.3037 25.6704Z" fill="black"/>
<path d="M34.9952 9.69177V9.64319C34.9819 9.60941 34.9657 9.57693 34.9466 9.54603L34.9102 9.49746L34.8373 9.41851L34.7948 9.38208L34.7159 9.34565H34.6855L21.4963 3.95336C21.3502 3.89431 21.1869 3.89431 21.0409 3.95336L7.88197 9.25456H7.85161L7.77267 9.29099L7.73016 9.32743L7.65729 9.40637L7.62086 9.45495C7.6018 9.48584 7.58556 9.51833 7.57228 9.55211V9.60069C7.5659 9.65109 7.5659 9.70209 7.57228 9.7525V14.6104H0.60724C0.271892 14.6104 0 14.8823 0 15.2176C0 15.553 0.271892 15.8249 0.60724 15.8249V15.9038H7.49941V17.9806H5.13725C4.8019 17.9806 4.53001 18.2525 4.53001 18.5878C4.53001 18.9232 4.8019 19.1951 5.13725 19.1951H7.49941V21.2718H1.90066C1.56531 21.2718 1.29342 21.5437 1.29342 21.8791C1.29342 22.2144 1.56531 22.4863 1.90066 22.4863H7.49941V25.0246C7.50062 25.2697 7.64917 25.4901 7.8759 25.5832L21.0409 31.0484C21.1067 31.0745 21.1766 31.0888 21.2473 31.0909C21.3181 31.0888 21.388 31.0745 21.4538 31.0484L34.6187 25.5832C34.8455 25.4901 34.994 25.2697 34.9952 25.0246V9.84358C35.0016 9.79318 35.0016 9.74217 34.9952 9.69177ZM21.2655 5.18606L26.257 7.18387L14.9017 11.9871L9.70976 9.82536L21.2655 5.18606ZM20.6401 29.5849L8.71389 24.6177V22.4802H11.2339C11.5693 22.4802 11.8412 22.2083 11.8412 21.873C11.8412 21.5376 11.5693 21.2658 11.2339 21.2658H8.71389V19.189H14.4827C14.818 19.189 15.0899 18.9171 15.0899 18.5818C15.0899 18.2464 14.818 17.9745 14.4827 17.9745H8.71389V15.9038H9.92837C10.2637 15.9038 10.5356 15.6319 10.5356 15.2966C10.5356 14.9612 10.2637 14.6894 9.92837 14.6894H8.71389V10.7302L13.3532 12.649L20.6401 15.6852V29.5849ZM21.2716 14.659L16.4744 12.649L27.8419 7.82755L32.8152 9.83144L25.5709 12.8676L21.2716 14.659ZM21.8728 29.5849V15.6852L25.2915 14.2643L33.7929 10.718L33.8232 24.6177L21.8728 29.5849Z" fill="black"/>
</svg>
