<svg width="35" height="35" viewBox="0 0 35 35" fill="none" xmlns="http://www.w3.org/2000/svg">
<path d="M28.644 23.308H25.1365V24.4771H28.644V23.308Z" fill="black"/>
<path d="M23.9674 23.308H20.46V24.4771H23.9674V23.308Z" fill="black"/>
<path d="M19.2908 23.308H15.7834V24.4771H19.2908V23.308Z" fill="black"/>
<path d="M34.4821 12.086L22.9152 0.517347C22.5867 0.185749 22.1391 -0.0005832 21.6724 1.37132e-06H21.6671C21.2034 0.000220585 20.7593 0.186626 20.4342 0.517347L8.16411 12.7857H1.75371C0.785151 12.7857 0 13.5709 0 14.5395V30.9074C0 31.876 0.785151 32.6612 1.75371 32.6612H10.4147L12.1591 34.4073C12.4875 34.7389 12.9351 34.9252 13.4019 34.9246H13.4065C13.8704 34.9245 14.3148 34.7381 14.64 34.4073L16.3878 32.6612H29.8131C30.7817 32.6612 31.5668 31.876 31.5668 30.9074V17.4822L34.4791 14.5699C34.8115 14.2445 34.9992 13.7992 35 13.3341C35.0017 12.8654 34.8151 12.4157 34.4821 12.086ZM27.0457 6.30285L20.5628 12.7857H15.5987L24.5637 3.82076L27.0457 6.30285ZM21.262 1.34159C21.4844 1.11383 21.8493 1.10944 22.0771 1.33187C22.0804 1.33509 22.0837 1.3383 22.0868 1.34159L23.7371 2.99417L13.9449 12.7857H9.81728L21.262 1.34159ZM13.8122 33.583C13.7053 33.6947 13.5576 33.758 13.403 33.7584C13.2464 33.758 13.0964 33.6949 12.9868 33.583L12.0685 32.6612H14.7347L13.8122 33.583ZM30.3977 30.9074C30.3977 31.2303 30.1359 31.492 29.8131 31.492H1.75371C1.43088 31.492 1.16914 31.2303 1.16914 30.9074V22.7234H30.3977V30.9074ZM30.3977 21.5543H1.16914V18.0469H30.3977V21.5543ZM30.3977 16.8777H1.16914V14.5395C1.16914 14.2166 1.43088 13.9549 1.75371 13.9549H29.8131C30.1359 13.9549 30.3977 14.2166 30.3977 14.5395V16.8777ZM33.6555 13.7403L31.5668 15.829V14.5395C31.5668 13.5709 30.7817 12.7857 29.8131 12.7857H22.2137L27.87 7.12943L33.6531 12.9126C33.7654 13.0226 33.8287 13.1733 33.8285 13.3306C33.8284 13.4849 33.766 13.6326 33.6555 13.7403Z" fill="black"/>
<path d="M5.60663 30.3386C5.69197 30.2648 5.77191 30.1849 5.84572 30.0995C6.61874 30.9999 7.94696 31.171 8.9229 30.4959C9.55277 30.0555 9.93085 29.3377 9.93771 28.5691C9.93771 27.2778 8.89082 26.2309 7.59943 26.2309C7.48339 26.2293 7.3675 26.239 7.25336 26.2601L7.23816 26.2642C7.23232 26.2642 7.22647 26.2642 7.22121 26.2642C6.68567 26.3532 6.19865 26.628 5.84572 27.0405C5.00101 26.0637 3.52431 25.9566 2.54756 26.8014C1.57075 27.6461 1.4637 29.1228 2.30848 30.0995C3.15318 31.0764 4.62981 31.1834 5.60663 30.3386ZM7.45153 27.4123C7.50027 27.403 7.54981 27.3989 7.59943 27.4C8.24516 27.4 8.76857 27.9234 8.76857 28.5691C8.76799 28.8165 8.68739 29.057 8.53884 29.2548C8.51779 29.2835 8.50142 29.3133 8.47746 29.3431C8.47336 29.3478 8.46752 29.3507 8.46284 29.3554C8.24202 29.5992 7.9284 29.7383 7.59943 29.7383C6.95384 29.7272 6.43935 29.195 6.45038 28.5494C6.46017 27.9762 6.88413 27.4946 7.45153 27.4123ZM4.092 27.4C4.73773 27.4 5.26114 27.9234 5.26114 28.5691C5.26114 29.2149 4.73773 29.7383 4.092 29.7383C3.44627 29.7383 2.92286 29.2149 2.92286 28.5691C2.92286 27.9234 3.44627 27.4 4.092 27.4Z" fill="black"/>
</svg>
