<svg width="35" height="35" viewBox="0 0 35 35" fill="none" xmlns="http://www.w3.org/2000/svg">
<g clip-path="url(#clip0)">
<path d="M34.378 6.61916C33.9245 6.08308 33.2894 5.75564 32.5897 5.6972L7.9423 3.63918C7.24244 3.58073 6.562 3.79832 6.02586 4.25174C5.4919 4.70339 5.16494 5.33524 5.10465 6.03161L4.60877 10.6839H2.62875C1.17926 10.6839 0 11.8631 0 13.3126V28.7414C0 30.1909 1.17926 31.3701 2.62875 31.3701H27.362C28.8115 31.3701 29.9908 30.1909 29.9908 28.7414V26.2386L30.8684 26.3118C30.9425 26.318 31.0161 26.3211 31.0891 26.3211C32.4404 26.3211 33.5924 25.2814 33.7068 23.9109L34.9907 8.53567C35.0491 7.83588 34.8315 7.1553 34.378 6.61916V6.61916ZM2.62875 12.051H27.362C28.0576 12.051 28.6236 12.617 28.6236 13.3126V14.7185H1.36718V13.3126C1.36718 12.617 1.93313 12.051 2.62875 12.051V12.051ZM1.36718 16.0857H28.6236V18.9218H1.36718V16.0857ZM27.362 30.003H2.62875C1.93313 30.003 1.36718 29.437 1.36718 28.7414V20.289H28.6236V28.7414C28.6236 29.437 28.0576 30.003 27.362 30.003ZM33.6282 8.42185L32.3444 23.7971C32.2865 24.4903 31.6753 25.0075 30.9822 24.9494L29.9908 24.8666V13.3126C29.9908 11.8631 28.8115 10.6839 27.362 10.6839H5.98375L6.46493 6.16942C6.46547 6.16423 6.46595 6.1591 6.46636 6.15384C6.52426 5.46061 7.13512 4.94354 7.82855 5.00164L32.476 7.05966C32.8118 7.08769 33.1166 7.24485 33.3342 7.50215C33.5518 7.75945 33.6563 8.08601 33.6282 8.42185V8.42185Z" fill="black"/>
<path d="M25.7627 22.3214H19.1837C18.8061 22.3214 18.5001 22.6275 18.5001 23.005V27.2972C18.5001 27.6748 18.8061 27.9808 19.1837 27.9808H25.7627C26.1403 27.9808 26.4463 27.6748 26.4463 27.2972V23.005C26.4463 22.6275 26.1403 22.3214 25.7627 22.3214ZM25.0791 26.6137H19.8673V23.6886H25.0791V26.6137Z" fill="black"/>
</g>
<defs>
<clipPath id="clip0">
<rect width="35" height="35" fill="white"/>
</clipPath>
</defs>
</svg>
