<svg width="35" height="35" viewBox="0 0 35 35" fill="none" xmlns="http://www.w3.org/2000/svg">
<path d="M27.825 26.3333C27.5147 26.1182 27.0887 26.1955 26.8738 26.5058C26.6654 26.8066 26.4293 27.099 26.1716 27.3751C25.999 27.5603 25.7615 27.7836 25.5032 28.0034C25.2156 28.2481 25.1809 28.6796 25.4256 28.9671C25.5608 29.126 25.7531 29.2076 25.9465 29.2076C26.1031 29.2076 26.2606 29.1541 26.3893 29.0446C26.6908 28.788 26.9614 28.5331 27.1715 28.3075C27.4738 27.9836 27.7518 27.6394 27.9976 27.2845C28.2126 26.9742 28.1353 26.5483 27.825 26.3333Z" fill="black"/>
<path d="M24.8468 29.3984C24.6864 29.0566 24.2795 28.9095 23.9376 29.0698L23.9162 29.0795C23.5708 29.2318 23.4144 29.6354 23.5669 29.9808C23.6797 30.2365 23.93 30.3886 24.1926 30.3886C24.2848 30.3886 24.3785 30.3698 24.4682 30.3302C24.4849 30.3229 24.5014 30.3154 24.518 30.3077C24.8598 30.1473 25.007 29.7404 24.8468 29.3984Z" fill="black"/>
<path d="M32.9578 1.7774H2.04223C0.916082 1.7774 0 2.69362 0 3.81964V22.9775C0 24.1034 0.916082 25.0195 2.04223 25.0195H16.4377C17.048 27.6015 18.4279 29.4301 19.634 30.6016C21.3944 32.3118 23.4124 33.2226 24.1923 33.2226C24.9721 33.2226 26.9901 32.3119 28.7505 30.6017C29.9566 29.4301 31.3366 27.6015 31.9468 25.0196H32.9578C34.0839 25.0196 35 24.1035 35 22.9775V3.81964C35 2.69362 34.0839 1.7774 32.9578 1.7774ZM30.8984 22.2181C30.8985 25.8198 29.2359 28.2088 27.8411 29.5788C26.1866 31.2039 24.4894 31.8361 24.1923 31.8553C23.895 31.8361 22.1978 31.204 20.5433 29.5788C19.1487 28.2088 17.4861 25.8198 17.4861 22.2181V18.8516C19.8397 18.171 22.042 17.2394 24.1925 16.0153C26.2945 17.2083 28.5955 18.1813 30.8984 18.8512V22.2181ZM33.6328 22.9775C33.6328 23.3496 33.3299 23.6524 32.9578 23.6524H32.1846C32.2369 23.1943 32.2656 22.7166 32.2656 22.2181V18.3333C32.2656 18.0248 32.0589 17.7545 31.7612 17.6737C29.2789 16.9996 26.781 15.9492 24.5376 14.6361C24.3243 14.5112 24.0603 14.5114 23.8469 14.6362C21.5399 15.9866 19.177 16.98 16.6233 17.6737C16.3256 17.7546 16.1189 18.0248 16.1189 18.3333V22.2181C16.1189 22.7166 16.1475 23.1943 16.2 23.6524H2.04223C1.67002 23.6524 1.36718 23.3495 1.36718 22.9775V11.3476H33.6328V22.9775ZM33.6328 9.98045H1.36718V7.24621H33.6328V9.98045ZM33.6328 5.87896H1.36718V3.81964C1.36718 3.44742 1.67002 3.14459 2.04223 3.14459H32.9578C33.3299 3.14459 33.6328 3.44742 33.6328 3.81964V5.87896Z" fill="black"/>
<path d="M8.20293 16.133C7.79079 16.133 7.38385 16.2163 7.00719 16.3752C6.63921 16.2193 6.2348 16.133 5.8107 16.133C4.1145 16.133 2.73447 17.5129 2.73447 19.209C2.73447 20.9052 4.11443 22.2852 5.8107 22.2852C6.2348 22.2852 6.63921 22.1989 7.00712 22.043C7.38385 22.2019 7.79079 22.2852 8.20293 22.2852C9.89919 22.2852 11.2792 20.9052 11.2792 19.209C11.2792 17.5129 9.89919 16.133 8.20293 16.133ZM5.8107 20.918C4.8683 20.918 4.10165 20.1514 4.10165 19.209C4.10165 18.2667 4.8683 17.5002 5.8107 17.5002C6.75296 17.5002 7.51961 18.2667 7.51961 19.209C7.51961 20.1514 6.75296 20.918 5.8107 20.918ZM8.37239 20.9097C8.6971 20.4222 8.88679 19.8374 8.88679 19.2091C8.88679 18.5808 8.6971 17.9961 8.37246 17.5087C9.23549 17.594 9.91198 18.3241 9.91198 19.2091C9.91198 20.0941 9.23549 20.8243 8.37239 20.9097Z" fill="black"/>
<path d="M6.93407 13.0567H3.41788C3.04033 13.0567 2.73428 13.3627 2.73428 13.7403C2.73428 14.1178 3.04033 14.4239 3.41788 14.4239H6.93407C7.31162 14.4239 7.61766 14.1177 7.61766 13.7403C7.61766 13.3627 7.31162 13.0567 6.93407 13.0567Z" fill="black"/>
<path d="M8.95479 13.0567H8.92239C8.54484 13.0567 8.2388 13.3627 8.2388 13.7403C8.2388 14.1178 8.54484 14.4239 8.92239 14.4239H8.95479C9.33227 14.4239 9.63839 14.1177 9.63839 13.7403C9.63839 13.3627 9.33227 13.0567 8.95479 13.0567Z" fill="black"/>
<path d="M27.9445 20.6463C27.6777 20.3795 27.245 20.3793 26.9779 20.6462L23.3222 24.3016L21.4066 22.3858C21.1396 22.1191 20.7067 22.1189 20.4398 22.3858C20.1729 22.6528 20.1728 23.0857 20.4398 23.3526L22.8389 25.7518C22.9724 25.8853 23.1473 25.952 23.3222 25.952C23.4972 25.952 23.6722 25.8853 23.8055 25.7518L27.9445 21.6131C28.2115 21.3462 28.2115 20.9134 27.9445 20.6463Z" fill="black"/>
</svg>
