<svg width="35" height="35" viewBox="0 0 35 35" fill="none" xmlns="http://www.w3.org/2000/svg">
<path d="M29.4726 11.9726C29.4726 5.36033 24.1123 0 17.5 0C10.8877 0 5.52736 5.36033 5.52736 11.9726C3.81794 12.1855 2.20163 13.3029 2.20163 15.897V22.1494C2.20163 25.076 4.25028 26.1403 6.19251 26.1403H8.12143C8.48876 26.1403 8.78658 25.8424 8.78658 25.4751V12.5979C8.78658 12.2305 8.48876 11.9327 8.12143 11.9327H6.85765C6.85765 6.05516 11.6224 1.29038 17.5 1.29038C23.3776 1.29038 28.1423 6.05516 28.1423 11.9327H26.8786C26.5112 11.9327 26.2134 12.2305 26.2134 12.5979V25.4552C26.2134 25.8225 26.5112 26.1203 26.8786 26.1203H28.1423C27.9561 30.6899 25.7611 31.7607 21.3778 31.9536V31.508C21.3778 30.7732 20.7822 30.1777 20.0475 30.1777H15.8637C15.129 30.1777 14.5334 30.7732 14.5334 31.508V33.6697C14.5334 34.4044 15.129 35 15.8637 35H20.0608C20.7955 35 21.3911 34.4044 21.3911 33.6697V33.2839C25.6081 33.091 29.2531 32.2197 29.4726 26.0804C31.1821 25.8675 32.7984 24.7501 32.7984 22.156V15.9036C32.7984 13.2963 31.1887 12.1855 29.4726 11.9726ZM7.45629 13.2165V24.79H6.15925C5.17483 24.79 3.49867 24.4441 3.49867 22.1294V15.877C3.49867 13.5823 5.15488 13.2165 6.15925 13.2165H7.45629V13.2165ZM20.0608 32.6653V33.6764H15.8637V31.5146H20.0608V32.6653ZM31.4681 22.1494C31.4681 24.4441 29.8119 24.81 28.8075 24.81H27.5437V13.263H28.8407C29.8252 13.263 31.5013 13.6089 31.5013 15.9236L31.4681 22.1494Z" fill="black"/>
</svg>
