<svg xmlns="http://www.w3.org/2000/svg" width="24" height="24" fill="none" viewBox="0 0 24 24">
  <path fill="#50C75B" d="M0 12C0 5.373 5.373 0 12 0s12 5.373 12 12-5.373 12-12 12S0 18.627 0 12z"/>
  <g clip-path="url(#clip0_3:609)">
    <path fill="#fff" d="M17.083 6.89A6.394 6.394 0 0012.526 5a6.448 6.448 0 00-5.579 9.662L6.033 18l3.415-.896a6.442 6.442 0 003.077.785h.003a6.45 6.45 0 005.954-8.91 6.408 6.408 0 00-1.4-2.09h.001zm-4.555 9.912c-.96 0-1.902-.258-2.727-.747l-.196-.117-2.026.53.54-1.975-.126-.203a5.312 5.312 0 01-.82-2.848 5.362 5.362 0 015.358-5.356c1.429 0 2.775.56 3.785 1.57a5.325 5.325 0 011.567 3.787 5.365 5.365 0 01-5.355 5.358zm2.935-4.012c-.16-.081-.952-.47-1.1-.523-.146-.054-.253-.081-.362.081-.107.16-.416.523-.51.632-.095.107-.188.122-.348.041-.16-.081-.681-.251-1.296-.8a4.911 4.911 0 01-.896-1.114c-.094-.16-.01-.249.072-.328.074-.071.16-.187.241-.282.081-.094.107-.16.16-.268.054-.107.028-.201-.013-.282-.04-.082-.363-.874-.495-1.196-.129-.316-.264-.272-.363-.278-.094-.004-.2-.004-.307-.004a.594.594 0 00-.429.2c-.147.16-.564.551-.564 1.343 0 .793.576 1.557.658 1.666.08.106 1.135 1.734 2.749 2.43.383.165.683.264.916.34.386.122.737.105 1.014.064.31-.046.952-.388 1.087-.765.135-.376.135-.697.094-.764-.038-.072-.145-.112-.307-.194v.001z"/>
  </g>
  <defs>
    <clipPath id="clip0_3:609">
      <path fill="#fff" d="M0 0h13v13H0z" transform="translate(6 5)"/>
    </clipPath>
  </defs>
</svg>
