<svg xmlns="http://www.w3.org/2000/svg" width="15" height="15" fill="none" viewBox="0 0 15 15">
  <path fill="#000" fill-rule="evenodd" d="M12.156 3.114a.325.325 0 00-.428-.433L2.245 6.956a.325.325 0 00.06.613l3.019.704c.629.147 1.118.642 1.256 1.273l.627 2.87c.067.304.482.35.613.067l4.336-9.37zm-.983-1.664c1.414-.637 2.86.824 2.209 2.23l-4.337 9.37c-.674 1.457-2.813 1.222-3.156-.346l-.628-2.87a.325.325 0 00-.244-.246l-3.02-.705C.438 8.52.23 6.383 1.69 5.725l9.483-4.275z" clip-rule="evenodd"/>
  <path fill="#000" fill-rule="evenodd" d="M5.523 9.477a.675.675 0 010-.954l2.5-2.5a.675.675 0 01.954.954l-2.5 2.5a.675.675 0 01-.954 0z" clip-rule="evenodd"/>
</svg>
