<svg class="menu-icon" width="15" height="15" viewBox="0 0 15 15" fill="none" xmlns="http://www.w3.org/2000/svg">
<path fill-rule="evenodd" clip-rule="evenodd" d="M13.4999 1.25H9.80762C9.66955 1.25 9.55762 1.36193 9.55762 1.5V5.44231H13.4999C13.638 5.44231 13.7499 5.33038 13.7499 5.19231V1.5C13.7499 1.36193 13.638 1.25 13.4999 1.25ZM9.80762 0C8.97919 0 8.30762 0.671573 8.30762 1.5V6.69231H13.4999C14.3284 6.69231 14.9999 6.02073 14.9999 5.19231V1.5C14.9999 0.671573 14.3284 0 13.4999 0H9.80762Z" fill="white"/>
<path fill-rule="evenodd" clip-rule="evenodd" d="M5.69231 1.25H2C1.86193 1.25 1.75 1.36193 1.75 1.5V5.19231C1.75 5.33038 1.86193 5.44231 2 5.44231H5.94231V1.5C5.94231 1.36193 5.83038 1.25 5.69231 1.25ZM2 0C1.17157 0 0.5 0.671573 0.5 1.5V5.19231C0.5 6.02073 1.17157 6.69231 2 6.69231H7.19231V1.5C7.19231 0.671573 6.52073 0 5.69231 0H2Z" fill="white"/>
<path fill-rule="evenodd" clip-rule="evenodd" d="M5.94231 9.05774H2C1.86193 9.05774 1.75 9.16967 1.75 9.30774V13C1.75 13.1381 1.86193 13.25 2 13.25H5.69231C5.83038 13.25 5.94231 13.1381 5.94231 13V9.05774ZM2 7.80774C1.17157 7.80774 0.5 8.47931 0.5 9.30774V13C0.5 13.8285 1.17157 14.5 2 14.5H5.69231C6.52073 14.5 7.19231 13.8285 7.19231 13V7.80774H2Z" fill="white"/>
<path fill-rule="evenodd" clip-rule="evenodd" d="M13.4999 9.05774H9.55762V13C9.55762 13.1381 9.66955 13.25 9.80762 13.25H13.4999C13.638 13.25 13.7499 13.1381 13.7499 13V9.30774C13.7499 9.16967 13.638 9.05774 13.4999 9.05774ZM8.30762 7.80774V13C8.30762 13.8285 8.97919 14.5 9.80762 14.5H13.4999C14.3284 14.5 14.9999 13.8285 14.9999 13V9.30774C14.9999 8.47931 14.3284 7.80774 13.4999 7.80774H8.30762Z" fill="white"/>
</svg>