<svg width="140" height="40" viewBox="0 0 140 40" fill="none" xmlns="http://www.w3.org/2000/svg">
<path d="M53.43 27C53.154 27 52.914 26.898 52.71 26.694C52.518 26.49 52.422 26.25 52.422 25.974V14.886C52.422 14.61 52.518 14.37 52.71 14.166C52.914 13.962 53.154 13.86 53.43 13.86H54.006C54.282 13.86 54.522 13.962 54.726 14.166C54.93 14.37 55.032 14.61 55.032 14.886V24.75C55.032 24.858 55.08 24.912 55.176 24.912H59.802C60.078 24.912 60.312 25.014 60.504 25.218C60.708 25.41 60.81 25.644 60.81 25.92V25.974C60.81 26.25 60.708 26.49 60.504 26.694C60.312 26.898 60.078 27 59.802 27H53.43ZM65.7756 27.18C64.7196 27.18 63.9516 26.892 63.4716 26.316C62.9916 25.728 62.7516 24.738 62.7516 23.346V18.666C62.7516 18.39 62.8536 18.15 63.0576 17.946C63.2616 17.742 63.5016 17.64 63.7776 17.64H64.0656C64.3416 17.64 64.5816 17.742 64.7856 17.946C64.9896 18.15 65.0916 18.39 65.0916 18.666V23.094C65.0916 23.934 65.2056 24.516 65.4336 24.84C65.6616 25.164 66.0456 25.326 66.5856 25.326C67.0776 25.326 67.5336 25.116 67.9536 24.696C68.3856 24.276 68.6016 23.826 68.6016 23.346V18.666C68.6016 18.39 68.7036 18.15 68.9076 17.946C69.1116 17.742 69.3516 17.64 69.6276 17.64H69.9876C70.2636 17.64 70.4976 17.742 70.6896 17.946C70.8936 18.15 70.9956 18.39 70.9956 18.666V25.974C70.9956 26.25 70.8936 26.49 70.6896 26.694C70.4976 26.898 70.2636 27 69.9876 27H69.7536C69.4656 27 69.2196 26.904 69.0156 26.712C68.8236 26.508 68.7216 26.262 68.7096 25.974L68.6916 25.848C68.6916 25.836 68.6856 25.83 68.6736 25.83C68.6616 25.83 68.6496 25.836 68.6376 25.848C67.8216 26.736 66.8676 27.18 65.7756 27.18ZM73.7644 27C73.5364 27 73.3684 26.904 73.2604 26.712C73.1524 26.52 73.1584 26.328 73.2784 26.136L75.5824 22.356C75.6424 22.272 75.6424 22.188 75.5824 22.104L73.3684 18.504C73.2484 18.312 73.2424 18.12 73.3504 17.928C73.4584 17.736 73.6264 17.64 73.8544 17.64H74.4304C74.7424 17.64 75.0304 17.724 75.2944 17.892C75.5704 18.048 75.7804 18.264 75.9244 18.54L77.1484 20.898C77.1484 20.91 77.1544 20.916 77.1664 20.916C77.1784 20.916 77.1844 20.91 77.1844 20.898L78.4084 18.54C78.5524 18.264 78.7564 18.048 79.0204 17.892C79.2844 17.724 79.5784 17.64 79.9024 17.64H80.4064C80.6344 17.64 80.8024 17.736 80.9104 17.928C81.0184 18.12 81.0124 18.312 80.8924 18.504L78.6784 22.104C78.6184 22.188 78.6184 22.272 78.6784 22.356L80.9824 26.136C81.1024 26.328 81.1084 26.52 81.0004 26.712C80.8924 26.904 80.7244 27 80.4964 27H79.9204C79.5964 27 79.3024 26.922 79.0384 26.766C78.7744 26.598 78.5704 26.376 78.4264 26.1L77.1124 23.58C77.1124 23.568 77.1064 23.562 77.0944 23.562C77.0824 23.562 77.0764 23.568 77.0764 23.58L75.7624 26.1C75.6184 26.376 75.4084 26.598 75.1324 26.766C74.8684 26.922 74.5804 27 74.2684 27H73.7644ZM91.8822 21.456C90.4422 20.976 89.3982 20.394 88.7502 19.71C88.1142 19.026 87.7962 18.198 87.7962 17.226C87.7962 16.134 88.1622 15.27 88.8942 14.634C89.6262 13.998 90.6522 13.68 91.9722 13.68C93.0882 13.68 94.0602 13.806 94.8882 14.058C95.1762 14.142 95.4042 14.316 95.5722 14.58C95.7522 14.832 95.8422 15.114 95.8422 15.426V15.588C95.8422 15.816 95.7402 15.996 95.5362 16.128C95.3322 16.248 95.1222 16.266 94.9062 16.182C94.0062 15.834 93.0882 15.66 92.1522 15.66C91.5522 15.66 91.0962 15.798 90.7842 16.074C90.4722 16.35 90.3162 16.734 90.3162 17.226C90.3162 18.09 90.8802 18.708 92.0082 19.08C93.6282 19.596 94.7502 20.184 95.3742 20.844C96.0102 21.504 96.3282 22.356 96.3282 23.4C96.3282 25.92 94.7742 27.18 91.6662 27.18C90.6942 27.18 89.8122 27.03 89.0202 26.73C88.7322 26.622 88.5042 26.436 88.3362 26.172C88.1802 25.908 88.1022 25.614 88.1022 25.29V25.074C88.1022 24.846 88.1982 24.684 88.3902 24.588C88.5822 24.48 88.7802 24.474 88.9842 24.57C89.7762 24.966 90.6102 25.164 91.4862 25.164C93.0102 25.164 93.7722 24.588 93.7722 23.436C93.7722 22.968 93.6282 22.584 93.3402 22.284C93.0522 21.972 92.5662 21.696 91.8822 21.456ZM99.6408 27C99.3648 27 99.1248 26.898 98.9208 26.694C98.7288 26.49 98.6328 26.25 98.6328 25.974V14.526C98.6328 14.25 98.7288 14.01 98.9208 13.806C99.1248 13.602 99.3648 13.5 99.6408 13.5H100.001C100.277 13.5 100.517 13.602 100.721 13.806C100.925 14.01 101.027 14.25 101.027 14.526V18.702C101.027 18.714 101.033 18.72 101.045 18.72C101.057 18.72 101.069 18.714 101.081 18.702C101.921 17.874 102.845 17.46 103.853 17.46C104.945 17.46 105.737 17.772 106.229 18.396C106.721 19.02 106.967 20.088 106.967 21.6V25.974C106.967 26.25 106.865 26.49 106.661 26.694C106.457 26.898 106.217 27 105.941 27H105.653C105.377 27 105.137 26.898 104.933 26.694C104.729 26.49 104.627 26.25 104.627 25.974V21.96C104.627 20.916 104.513 20.226 104.285 19.89C104.069 19.554 103.655 19.386 103.043 19.386C102.563 19.386 102.107 19.602 101.675 20.034C101.243 20.466 101.027 20.928 101.027 21.42V25.974C101.027 26.25 100.925 26.49 100.721 26.694C100.517 26.898 100.277 27 100.001 27H99.6408ZM114.861 19.962C114.513 19.458 113.985 19.206 113.277 19.206C112.569 19.206 112.035 19.458 111.675 19.962C111.327 20.454 111.153 21.24 111.153 22.32C111.153 23.4 111.327 24.192 111.675 24.696C112.035 25.188 112.569 25.434 113.277 25.434C113.985 25.434 114.513 25.188 114.861 24.696C115.221 24.192 115.401 23.4 115.401 22.32C115.401 21.24 115.221 20.454 114.861 19.962ZM116.625 25.92C115.833 26.76 114.717 27.18 113.277 27.18C111.837 27.18 110.715 26.76 109.911 25.92C109.119 25.068 108.723 23.868 108.723 22.32C108.723 20.772 109.119 19.578 109.911 18.738C110.715 17.886 111.837 17.46 113.277 17.46C114.717 17.46 115.833 17.886 116.625 18.738C117.429 19.578 117.831 20.772 117.831 22.32C117.831 23.868 117.429 25.068 116.625 25.92ZM122.065 21.096V23.544C122.065 24.024 122.269 24.45 122.677 24.822C123.097 25.194 123.583 25.38 124.135 25.38C124.771 25.38 125.275 25.122 125.647 24.606C126.019 24.09 126.205 23.328 126.205 22.32C126.205 20.28 125.515 19.26 124.135 19.26C123.583 19.26 123.097 19.446 122.677 19.818C122.269 20.19 122.065 20.616 122.065 21.096ZM120.715 30.96C120.439 30.96 120.199 30.858 119.995 30.654C119.791 30.45 119.689 30.21 119.689 29.934V18.666C119.689 18.39 119.791 18.15 119.995 17.946C120.199 17.742 120.439 17.64 120.715 17.64H120.931C121.219 17.64 121.465 17.742 121.669 17.946C121.873 18.138 121.981 18.378 121.993 18.666V18.792C121.993 18.804 121.999 18.81 122.011 18.81C122.023 18.81 122.035 18.804 122.047 18.792C122.479 18.312 122.911 17.97 123.343 17.766C123.775 17.562 124.279 17.46 124.855 17.46C125.983 17.46 126.883 17.886 127.555 18.738C128.227 19.578 128.563 20.772 128.563 22.32C128.563 23.82 128.209 25.008 127.501 25.884C126.805 26.748 125.923 27.18 124.855 27.18C123.811 27.18 122.905 26.802 122.137 26.046C122.125 26.034 122.113 26.028 122.101 26.028C122.089 26.028 122.083 26.034 122.083 26.046V29.934C122.083 30.21 121.981 30.45 121.777 30.654C121.585 30.858 121.351 30.96 121.075 30.96H120.715Z" fill="black"/>
<rect width="40" height="40" rx="10" fill="#06DD9B" fill-opacity="0.15"/>
<path d="M21.1396 10H19.3766C19.0249 10 18.6991 10.1847 18.5185 10.4865L9.31726 25.862C9.12281 26.1869 9.12857 26.5938 9.33214 26.9131L10.3678 28.5376C10.5515 28.8256 10.8694 29 11.211 29H16.3115C16.6585 29 16.9808 28.8201 17.1628 28.5247L18.0073 27.1545C18.2126 26.8214 17.9729 26.3922 17.5816 26.3922H13.0435C12.6546 26.3922 12.4145 25.9676 12.6151 25.6343L21.568 10.7578C21.7686 10.4246 21.5286 10 21.1396 10Z" fill="#06D9A1"/>
<path d="M17.7935 22.2649L23.202 13.3674C23.3972 13.0462 23.8638 13.0472 24.0576 13.3693L26.6668 17.7043C26.8673 18.0376 26.6273 18.4622 26.2384 18.4622H24.2021C24.0886 18.4622 23.9833 18.403 23.9244 18.306C23.7943 18.0919 23.4812 18.0993 23.3614 18.3193L22.1803 20.4881C21.9988 20.8213 22.24 21.2273 22.6194 21.2273H28.2301C28.5755 21.2273 28.8965 21.4056 29.0791 21.6989L31.6728 25.8663C31.8732 26.1885 31.8741 26.5964 31.6751 26.9194L30.6857 28.5247C30.5037 28.8201 30.1814 29 29.8344 29H20.726C20.3417 29 20.1011 28.5845 20.2923 28.2512L21.0708 26.8945C21.2491 26.5838 21.5799 26.3922 21.9382 26.3922H27.8738C28.2685 26.3922 28.5076 25.9562 28.2954 25.6234L27.1229 23.7843H18.648C17.8681 23.7843 17.3884 22.9313 17.7935 22.2649Z" fill="#06D9A1"/>
</svg>
