<svg xmlns="http://www.w3.org/2000/svg" width="140" height="40" fill="none" viewBox="0 0 140 40">
  <path fill="#000" d="M53.43 27a1.016 1.016 0 01-1.008-1.026V14.886a1.016 1.016 0 011.008-1.026h.576c.276 0 .516.102.72.306a.985.985 0 01.306.72v9.864c0 .108.048.162.144.162h4.626c.276 0 .51.102.702.306a.928.928 0 01.306.702v.054a.985.985 0 01-.306.72.928.928 0 01-.702.306H53.43zm12.346.18c-1.056 0-1.824-.288-2.304-.864-.48-.588-.72-1.578-.72-2.97v-4.68c0-.276.102-.516.306-.72a.985.985 0 01.72-.306h.288c.276 0 .516.102.72.306a.985.985 0 01.306.72v4.428c0 .84.114 1.422.342 1.746.228.324.612.486 1.152.486.492 0 .948-.21 1.368-.63.432-.42.648-.87.648-1.35v-4.68c0-.276.102-.516.306-.72a.985.985 0 01.72-.306h.36c.276 0 .51.102.702.306a.985.985 0 01.306.72v7.308a.985.985 0 01-.306.72.928.928 0 01-.702.306h-.234c-.288 0-.534-.096-.738-.288a1.11 1.11 0 01-.306-.738l-.018-.126c0-.012-.006-.018-.018-.018-.012 0-.024.006-.036.018-.816.888-1.77 1.332-2.862 1.332zm7.988-.18a.539.539 0 01-.504-.288.528.528 0 01.018-.576l2.304-3.78a.199.199 0 000-.252l-2.214-3.6a.528.528 0 01-.018-.576.539.539 0 01.504-.288h.576c.312 0 .6.084.864.252.276.156.486.372.63.648l1.224 2.358c0 .012.006.018.018.018.012 0 .018-.006.018-.018l1.224-2.358c.144-.276.348-.492.612-.648.264-.168.558-.252.882-.252h.504c.228 0 .396.096.504.288a.528.528 0 01-.018.576l-2.214 3.6a.199.199 0 000 .252l2.304 3.78c.12.192.126.384.018.576a.539.539 0 01-.504.288h-.576c-.324 0-.618-.078-.882-.234a1.72 1.72 0 01-.612-.666l-1.314-2.52c0-.012-.006-.018-.018-.018-.012 0-.018.006-.018.018l-1.314 2.52a1.679 1.679 0 01-1.494.9h-.504zm18.118-5.544c-1.44-.48-2.484-1.062-3.132-1.746-.636-.684-.954-1.512-.954-2.484 0-1.092.366-1.956 1.098-2.592.732-.636 1.758-.954 3.078-.954 1.116 0 2.088.126 2.916.378.288.084.516.258.684.522.18.252.27.534.27.846v.162a.613.613 0 01-.306.54.69.69 0 01-.63.054 7.577 7.577 0 00-2.754-.522c-.6 0-1.056.138-1.368.414-.312.276-.468.66-.468 1.152 0 .864.564 1.482 1.692 1.854 1.62.516 2.742 1.104 3.366 1.764.636.66.954 1.512.954 2.556 0 2.52-1.554 3.78-4.662 3.78-.972 0-1.854-.15-2.646-.45a1.357 1.357 0 01-.684-.558 1.701 1.701 0 01-.234-.882v-.216c0-.228.096-.39.288-.486a.615.615 0 01.594-.018 5.523 5.523 0 002.502.594c1.524 0 2.286-.576 2.286-1.728 0-.468-.144-.852-.432-1.152-.288-.312-.774-.588-1.458-.828zM99.641 27a1.016 1.016 0 01-1.008-1.026V14.526A1.016 1.016 0 0199.64 13.5h.36c.276 0 .516.102.72.306a.985.985 0 01.306.72v4.176c0 .012.006.018.018.018.012 0 .024-.006.036-.018.84-.828 1.764-1.242 2.772-1.242 1.092 0 1.884.312 2.376.936.492.624.738 1.692.738 3.204v4.374a.985.985 0 01-.306.72.985.985 0 01-.72.306h-.288a.985.985 0 01-.72-.306.985.985 0 01-.306-.72V21.96c0-1.044-.114-1.734-.342-2.07-.216-.336-.63-.504-1.242-.504-.48 0-.936.216-1.368.648-.432.432-.648.894-.648 1.386v4.554a.985.985 0 01-.306.72.985.985 0 01-.72.306h-.36zm15.22-7.038c-.348-.504-.876-.756-1.584-.756-.708 0-1.242.252-1.602.756-.348.492-.522 1.278-.522 2.358s.174 1.872.522 2.376c.36.492.894.738 1.602.738.708 0 1.236-.246 1.584-.738.36-.504.54-1.296.54-2.376 0-1.08-.18-1.866-.54-2.358zm1.764 5.958c-.792.84-1.908 1.26-3.348 1.26s-2.562-.42-3.366-1.26c-.792-.852-1.188-2.052-1.188-3.6s.396-2.742 1.188-3.582c.804-.852 1.926-1.278 3.366-1.278 1.44 0 2.556.426 3.348 1.278.804.84 1.206 2.034 1.206 3.582s-.402 2.748-1.206 3.6zm5.44-4.824v2.448c0 .48.204.906.612 1.278.42.372.906.558 1.458.558.636 0 1.14-.258 1.512-.774.372-.516.558-1.278.558-2.286 0-2.04-.69-3.06-2.07-3.06-.552 0-1.038.186-1.458.558-.408.372-.612.798-.612 1.278zm-1.35 9.864a.985.985 0 01-.72-.306.985.985 0 01-.306-.72V18.666c0-.276.102-.516.306-.72a.985.985 0 01.72-.306h.216c.288 0 .534.102.738.306.204.192.312.432.324.72v.126c0 .012.006.018.018.018.012 0 .024-.006.036-.018.432-.48.864-.822 1.296-1.026.432-.204.936-.306 1.512-.306 1.128 0 2.028.426 2.7 1.278.672.84 1.008 2.034 1.008 3.582 0 1.5-.354 2.688-1.062 3.564-.696.864-1.578 1.296-2.646 1.296-1.044 0-1.95-.378-2.718-1.134-.012-.012-.024-.018-.036-.018-.012 0-.018.006-.018.018v3.888a.985.985 0 01-.306.72.928.928 0 01-.702.306h-.36z"/>
  <rect width="40" height="40" fill="#7A70E2" fill-opacity=".15" rx="10"/>
  <path fill="#7A70E2" d="M21.14 10h-1.763a1 1 0 00-.858.486L9.316 25.862a1 1 0 00.015 1.051l1.036 1.625a1 1 0 00.843.462h5.1a1 1 0 00.852-.475l.844-1.37a.5.5 0 00-.425-.763h-4.539a.5.5 0 01-.428-.758l8.953-14.876A.5.5 0 0021.14 10z"/>
  <path fill="#7A70E2" d="M17.794 22.265l5.408-8.898a.5.5 0 01.856.002l2.609 4.335a.5.5 0 01-.429.758h-2.036a.325.325 0 01-.278-.156.325.325 0 00-.563.013l-1.18 2.17a.5.5 0 00.438.738h5.611a1 1 0 01.85.472l2.593 4.167a1 1 0 01.002 1.053l-.99 1.606a1 1 0 01-.85.475h-9.109a.5.5 0 01-.434-.749l.779-1.357a1 1 0 01.867-.502h5.936a.5.5 0 00.421-.769l-1.172-1.839h-8.475a1 1 0 01-.854-1.52z"/>
</svg>
