<svg width="19" height="20" viewBox="0 0 19 20" fill="none" xmlns="http://www.w3.org/2000/svg">
<path d="M18.9694 11.9943C18.9694 10.6012 17.854 9.46619 16.4701 9.42992C15.4546 6.85441 12.9592 5.01989 10.0364 4.98082C10.2721 4.68905 10.5003 4.31956 10.5097 3.97039C10.5286 3.22044 10.0589 2.9466 9.71589 2.74671C9.40479 2.56535 9.25532 2.4649 9.25472 2.16576C9.25353 1.57564 9.81893 1.52104 9.93054 1.51625C10.0956 1.51127 10.2253 1.37336 10.2203 1.20834C10.2151 1.04332 10.0786 0.915773 9.9124 0.918563C9.47734 0.931916 8.65484 1.20993 8.65703 2.16735C8.65883 2.82244 9.09588 3.07714 9.41496 3.26329C9.75755 3.46298 9.92157 3.57578 9.9122 3.95524C9.90463 4.24024 9.49029 4.73629 9.17859 5.02088C6.54648 5.30687 4.34824 7.0545 3.41155 9.43291C2.04996 9.49529 0.960602 10.6187 0.960602 11.9947C0.960602 13.372 2.05016 14.4962 3.41175 14.5586C4.43773 17.163 6.97676 19.0117 9.9413 19.0117C12.9048 19.0117 15.4431 17.164 16.4699 14.561C17.8538 14.5245 18.9694 13.3885 18.9694 11.9943ZM1.55829 11.9943C1.55829 11.0205 2.26958 10.2118 3.1997 10.0543C3.02193 10.6711 2.92467 11.3216 2.92467 11.9949C2.92467 12.6685 3.02212 13.3194 3.2001 13.9364C2.26978 13.7788 1.55829 12.969 1.55829 11.9943ZM9.9411 18.4134C6.40199 18.4134 3.52256 15.5342 3.52256 11.9949C3.52256 8.45556 6.40199 5.57612 9.9411 5.57612C13.4804 5.57612 16.3596 8.45556 16.3596 11.9949C16.3596 15.5342 13.4804 18.4134 9.9411 18.4134ZM16.6799 13.9442C16.8595 13.3248 16.9575 12.6713 16.9575 11.9949C16.9575 11.3186 16.8595 10.6654 16.6801 10.0463C17.6345 10.1821 18.3713 11.0028 18.3713 11.9943C18.3715 12.987 17.6343 13.8085 16.6799 13.9442Z" fill="black"/>
<path d="M8.10238 11.2359C8.10238 11.401 8.23611 11.5349 8.40133 11.5349C8.56654 11.5349 8.70027 11.401 8.70027 11.2359C8.70027 10.47 8.07707 9.84685 7.31078 9.84685C6.54448 9.84685 5.92108 10.47 5.92108 11.2359C5.92108 11.401 6.05481 11.5349 6.22003 11.5349C6.38524 11.5349 6.51897 11.401 6.51897 11.2359C6.51897 10.7999 6.87412 10.4447 7.31078 10.4447C7.74724 10.4447 8.10238 10.7999 8.10238 11.2359Z" fill="black"/>
<path d="M12.4981 9.84685C11.7318 9.84685 11.1084 10.47 11.1084 11.2359C11.1084 11.401 11.2423 11.5349 11.4073 11.5349C11.5723 11.5349 11.7063 11.401 11.7063 11.2359C11.7063 10.7999 12.0614 10.4447 12.4981 10.4447C12.9347 10.4447 13.2897 10.7997 13.2897 11.2359C13.2897 11.401 13.4236 11.5349 13.5886 11.5349C13.7536 11.5349 13.8876 11.401 13.8876 11.2359C13.8876 10.47 13.2642 9.84685 12.4981 9.84685Z" fill="black"/>
<path d="M12.7348 13.2052C12.5698 13.2052 12.4359 13.3391 12.4359 13.5041C12.4359 14.8799 11.3168 15.9993 9.94109 15.9993C8.56554 15.9993 7.44649 14.8801 7.44649 13.5041C7.44649 13.3391 7.31276 13.2052 7.14755 13.2052C6.98233 13.2052 6.8486 13.3391 6.8486 13.5041C6.8486 15.2097 8.23591 16.5972 9.94109 16.5972C11.6465 16.5972 13.0338 15.2097 13.0338 13.5041C13.0338 13.3391 12.9 13.2052 12.7348 13.2052Z" fill="black"/>
</svg>
