<svg width="20" height="20" viewBox="0 0 20 20" fill="none" xmlns="http://www.w3.org/2000/svg">
<path fill-rule="evenodd" clip-rule="evenodd" d="M0.3125 9.81855C0.3125 6.63957 2.88957 4.0625 6.06855 4.0625H13.9315C17.1104 4.0625 19.6875 6.63957 19.6875 9.81855V11.3514C19.6875 13.6838 17.7967 15.5746 15.4643 15.5746C14.5918 15.5746 13.7651 15.1844 13.2105 14.511L12.6378 13.8156C12.2146 13.3017 11.5838 13.004 10.9181 13.004H9.08188C8.41619 13.004 7.78538 13.3017 7.3622 13.8156L6.78952 14.511C6.23491 15.1844 5.40818 15.5746 4.53574 15.5746C2.20331 15.5746 0.3125 13.6838 0.3125 11.3514V9.81855ZM6.06855 4.6875C3.23475 4.6875 0.9375 6.98475 0.9375 9.81855V11.3514C0.9375 13.3386 2.54849 14.9496 4.53574 14.9496C5.22142 14.9496 5.87117 14.643 6.30706 14.1137L6.87974 13.4183C7.42165 12.7602 8.22943 12.379 9.08188 12.379H10.9181C11.7706 12.379 12.5784 12.7602 13.1203 13.4183L13.6929 14.1137C14.1288 14.643 14.7786 14.9496 15.4643 14.9496C17.4515 14.9496 19.0625 13.3386 19.0625 11.3514V9.81855C19.0625 6.98475 16.7653 4.6875 13.9315 4.6875H6.06855ZM15.1411 7.71169C14.9797 7.71169 14.8488 7.84258 14.8488 8.00403C14.8488 8.16549 14.9797 8.29637 15.1411 8.29637C15.3026 8.29637 15.4335 8.16549 15.4335 8.00403C15.4335 7.84258 15.3026 7.71169 15.1411 7.71169ZM14.2238 8.00403C14.2238 7.4974 14.6345 7.08669 15.1411 7.08669C15.6478 7.08669 16.0585 7.4974 16.0585 8.00403C16.0585 8.51066 15.6478 8.92137 15.1411 8.92137C14.6345 8.92137 14.2238 8.51066 14.2238 8.00403ZM4.85887 7.38911C5.03146 7.38911 5.17137 7.52902 5.17137 7.70161V9.50605H6.97581C7.1484 9.50605 7.28831 9.64596 7.28831 9.81855C7.28831 9.99114 7.1484 10.131 6.97581 10.131H5.17137V11.9355C5.17137 12.1081 5.03146 12.248 4.85887 12.248C4.68628 12.248 4.54637 12.1081 4.54637 11.9355V10.131H2.74194C2.56935 10.131 2.42944 9.99114 2.42944 9.81855C2.42944 9.64596 2.56935 9.50605 2.74194 9.50605H4.54637V7.70161C4.54637 7.52902 4.68628 7.38911 4.85887 7.38911ZM13.3266 9.52621C13.1652 9.52621 13.0343 9.65709 13.0343 9.81855C13.0343 9.98 13.1652 10.1109 13.3266 10.1109C13.4881 10.1109 13.619 9.98 13.619 9.81855C13.619 9.65709 13.4881 9.52621 13.3266 9.52621ZM12.4093 9.81855C12.4093 9.31192 12.82 8.90121 13.3266 8.90121C13.8332 8.90121 14.244 9.31192 14.244 9.81855C14.244 10.3252 13.8332 10.7359 13.3266 10.7359C12.82 10.7359 12.4093 10.3252 12.4093 9.81855ZM16.9556 9.52621C16.7942 9.52621 16.6633 9.65709 16.6633 9.81855C16.6633 9.98 16.7942 10.1109 16.9556 10.1109C17.1171 10.1109 17.248 9.98 17.248 9.81855C17.248 9.65709 17.1171 9.52621 16.9556 9.52621ZM16.0383 9.81855C16.0383 9.31192 16.449 8.90121 16.9556 8.90121C17.4623 8.90121 17.873 9.31192 17.873 9.81855C17.873 10.3252 17.4623 10.7359 16.9556 10.7359C16.449 10.7359 16.0383 10.3252 16.0383 9.81855ZM15.1411 11.3407C14.9797 11.3407 14.8488 11.4716 14.8488 11.6331C14.8488 11.7945 14.9797 11.9254 15.1411 11.9254C15.3026 11.9254 15.4335 11.7945 15.4335 11.6331C15.4335 11.4716 15.3026 11.3407 15.1411 11.3407ZM14.2238 11.6331C14.2238 11.1264 14.6345 10.7157 15.1411 10.7157C15.6478 10.7157 16.0585 11.1264 16.0585 11.6331C16.0585 12.1397 15.6478 12.5504 15.1411 12.5504C14.6345 12.5504 14.2238 12.1397 14.2238 11.6331Z" fill="black"/>
</svg>