<svg width="20" height="20" viewBox="0 0 20 20" fill="none" xmlns="http://www.w3.org/2000/svg">
<path fill-rule="evenodd" clip-rule="evenodd" d="M4.92188 1.25C3.71375 1.25 2.73438 2.22938 2.73438 3.4375V6.89498C3.92433 7.04827 4.84375 8.0652 4.84375 9.29688V9.6875H15.1562V9.29688C15.1562 8.0652 16.0757 7.04827 17.2656 6.89498V3.4375C17.2656 2.22938 16.2862 1.25 15.0781 1.25H4.92188ZM17.8906 6.89498V3.4375C17.8906 1.8842 16.6314 0.625 15.0781 0.625H4.92188C3.36857 0.625 2.10938 1.8842 2.10938 3.4375V6.89498C0.919422 7.04827 0 8.0652 0 9.29688V15C0 16.5533 1.2592 17.8125 2.8125 17.8125H3.35938V18.4375C3.35938 18.9553 3.77911 19.375 4.29688 19.375H5C5.51777 19.375 5.9375 18.9553 5.9375 18.4375V17.8125H13.9062V18.4375C13.9062 18.9553 14.326 19.375 14.8438 19.375H15.7031C16.2209 19.375 16.6406 18.9553 16.6406 18.4375V17.8125H17.1875C18.7408 17.8125 20 16.5533 20 15V9.29688C20 8.0652 19.0806 7.04827 17.8906 6.89498ZM16.0156 17.8125H14.5312V18.4375C14.5312 18.6101 14.6712 18.75 14.8438 18.75H15.7031C15.8757 18.75 16.0156 18.6101 16.0156 18.4375V17.8125ZM5.3125 17.8125H3.98438V18.4375C3.98438 18.6101 4.12429 18.75 4.29688 18.75H5C5.17259 18.75 5.3125 18.6101 5.3125 18.4375V17.8125ZM15.1562 10.3125H4.84375V12.5C4.84375 13.0178 5.26348 13.4375 5.78125 13.4375H14.2188C14.7365 13.4375 15.1562 13.0178 15.1562 12.5V10.3125ZM2.42188 7.5C1.42949 7.5 0.625 8.30449 0.625 9.29688V15C0.625 16.2081 1.60438 17.1875 2.8125 17.1875H17.1875C18.3956 17.1875 19.375 16.2081 19.375 15V9.29688C19.375 8.30449 18.5705 7.5 17.5781 7.5C16.5857 7.5 15.7812 8.30449 15.7812 9.29688V12.5C15.7812 13.3629 15.0817 14.0625 14.2188 14.0625H5.78125C4.91831 14.0625 4.21875 13.3629 4.21875 12.5V9.29688C4.21875 8.30449 3.41426 7.5 2.42188 7.5Z" fill="black"/>
</svg>