<svg width="20" height="20" viewBox="0 0 20 20" fill="none" xmlns="http://www.w3.org/2000/svg">
<path fill-rule="evenodd" clip-rule="evenodd" d="M3.04688 3.4375C2.52911 3.4375 2.10938 3.85723 2.10938 4.375V14.0625H6.74765C7.01798 14.0625 7.27517 14.1792 7.45319 14.3827L7.62655 14.5808C7.68589 14.6486 7.77162 14.6875 7.86173 14.6875H12.1383C12.2284 14.6875 12.3141 14.6486 12.3734 14.5808L12.5468 14.3827C12.7248 14.1792 12.982 14.0625 13.2524 14.0625H17.8906V4.375C17.8906 3.85723 17.4709 3.4375 16.9531 3.4375H3.04688ZM18.5156 14.0625V4.375C18.5156 3.51206 17.8161 2.8125 16.9531 2.8125H3.04688C2.18393 2.8125 1.48438 3.51206 1.48438 4.375V14.0625H0.9375C0.419733 14.0625 0 14.4822 0 15C0 16.2081 0.979378 17.1875 2.1875 17.1875H17.8125C19.0206 17.1875 20 16.2081 20 15C20 14.4822 19.5803 14.0625 19.0625 14.0625H18.5156ZM0.9375 14.6875C0.764911 14.6875 0.625 14.8274 0.625 15C0.625 15.8629 1.32456 16.5625 2.1875 16.5625H17.8125C18.6754 16.5625 19.375 15.8629 19.375 15C19.375 14.8274 19.2351 14.6875 19.0625 14.6875H13.2524C13.1622 14.6875 13.0765 14.7264 13.0172 14.7942L12.8438 14.9923C12.6658 15.1958 12.4086 15.3125 12.1383 15.3125H7.86173C7.59139 15.3125 7.33421 15.1958 7.15619 14.9923L6.98282 14.7942C6.92348 14.7264 6.83776 14.6875 6.74765 14.6875H0.9375Z" fill="black"/>
</svg>