<svg width="20" height="20" viewBox="0 0 20 20" fill="none" xmlns="http://www.w3.org/2000/svg">
<path fill-rule="evenodd" clip-rule="evenodd" d="M2.5 1.5625C2.5 0.699555 3.19956 0 4.0625 0H15.9375C16.8004 0 17.5 0.699555 17.5 1.5625V18.4375C17.5 19.3004 16.8004 20 15.9375 20H4.0625C3.19955 20 2.5 19.3004 2.5 18.4375V1.5625ZM4.0625 0.625C3.54473 0.625 3.125 1.04473 3.125 1.5625V4.0625H12.1875C12.3601 4.0625 12.5 4.20241 12.5 4.375C12.5 4.54759 12.3601 4.6875 12.1875 4.6875H3.125V18.4375C3.125 18.9553 3.54473 19.375 4.0625 19.375H15.9375C16.4553 19.375 16.875 18.9553 16.875 18.4375V4.6875H14.0625C13.8899 4.6875 13.75 4.54759 13.75 4.375C13.75 4.20241 13.8899 4.0625 14.0625 4.0625H16.875V1.5625C16.875 1.04473 16.4553 0.625 15.9375 0.625H15.625V1.25C15.625 2.11294 14.9254 2.8125 14.0625 2.8125H11.875C11.0121 2.8125 10.3125 2.11294 10.3125 1.25V0.625H4.0625ZM10.9375 0.625V1.25C10.9375 1.76777 11.3572 2.1875 11.875 2.1875H14.0625C14.5803 2.1875 15 1.76777 15 1.25V0.625H10.9375ZM4.6875 2.5C4.6875 2.32741 4.82741 2.1875 5 2.1875H8.125C8.29759 2.1875 8.4375 2.32741 8.4375 2.5C8.4375 2.67259 8.29759 2.8125 8.125 2.8125H5C4.82741 2.8125 4.6875 2.67259 4.6875 2.5ZM10 8.4375C7.75634 8.4375 5.9375 10.2563 5.9375 12.5C5.9375 14.7437 7.75634 16.5625 10 16.5625C12.2437 16.5625 14.0625 14.7437 14.0625 12.5C14.0625 10.2563 12.2437 8.4375 10 8.4375ZM5.3125 12.5C5.3125 9.91117 7.41117 7.8125 10 7.8125C12.5888 7.8125 14.6875 9.91117 14.6875 12.5C14.6875 15.0888 12.5888 17.1875 10 17.1875C7.41117 17.1875 5.3125 15.0888 5.3125 12.5Z" fill="black"/>
</svg>