<svg xmlns="http://www.w3.org/2000/svg" width="24" height="24" fill="none" viewBox="0 0 24 24">
  <rect width="24" height="24" fill="#00BC52" rx="5"/>
  <path fill="#fff" d="M12.176 5h-.785a1 1 0 00-.858.486L4.317 15.873a1 1 0 00.015 1.051l.53.831a1 1 0 00.843.462h3.211a1 1 0 00.852-.475l.355-.576a.5.5 0 00-.426-.763H7.082a.5.5 0 01-.428-.758l5.95-9.887A.5.5 0 0012.176 5z"/>
  <path fill="#fff" d="M10.398 13.07l3.35-5.512a.5.5 0 01.857.001l1.546 2.57a.5.5 0 01-.428.758h-1.148a.226.226 0 01-.193-.109.226.226 0 00-.391.01l-.7 1.283a.5.5 0 00.44.74h3.477a1 1 0 01.85.47l1.615 2.596a1 1 0 01.002 1.053l-.5.812a1 1 0 01-.851.475H12.42a.5.5 0 01-.434-.748l.323-.564a1 1 0 01.868-.502h3.675a.5.5 0 00.422-.769l-.667-1.045h-5.354a1 1 0 01-.855-1.52z"/>
</svg>
