<svg width="43" height="45" viewBox="0 0 43 45" fill="none" xmlns="http://www.w3.org/2000/svg">
<path fill-rule="evenodd" clip-rule="evenodd" d="M19.8252 1.27358H4.40559C2.70239 1.27358 1.32168 2.60406 1.32168 4.24528V40.7547C1.32168 42.3959 2.70239 43.7264 4.40559 43.7264H19.8252C21.5284 43.7264 22.9091 42.3959 22.9091 40.7547V4.24528C22.9091 2.60406 21.5284 1.27358 19.8252 1.27358ZM4.40559 0C1.97245 0 0 1.90068 0 4.24528V40.7547C0 43.0993 1.97245 45 4.40559 45H19.8252C22.2583 45 24.2308 43.0993 24.2308 40.7547V4.24528C24.2308 1.90068 22.2583 0 19.8252 0H4.40559Z" fill="black"/>
<path d="M5.53847 1.20001H11.4231H17.3077L15.5842 2.90328C15.3446 3.14004 14.9897 3.27694 14.6154 3.27694H8.23073C7.8565 3.27694 7.50159 3.14004 7.26201 2.90328L5.53847 1.20001Z" fill="black"/>
<path fill-rule="evenodd" clip-rule="evenodd" d="M22.6678 16.9198C22.6678 15.987 23.4257 15.2308 24.3607 15.2308H30.0739C31.0088 15.2308 31.7667 15.987 31.7667 16.9198V19.2779C31.7667 19.4262 31.8447 19.5637 31.9722 19.64L34.161 20.9504C34.2793 21.0211 34.4246 21.03 34.5506 20.9741L37.0344 19.8727C37.7931 19.5363 38.6844 19.7985 39.1387 20.4919L41.773 24.5117C42.2115 25.1809 42.1197 26.0651 41.5532 26.6304L39.5084 28.6706C39.429 28.7498 39.3844 28.8572 39.3844 28.9692V31.2168C39.3844 31.3393 39.4377 31.4557 39.5304 31.5359L41.6466 33.3658C42.2828 33.9159 42.4171 34.8489 41.9618 35.5555L39.1394 39.9362C38.6877 40.6372 37.7911 40.9048 37.0279 40.5663L34.6237 39.5002C34.4818 39.4372 34.3168 39.4569 34.1938 39.5513L32.3551 40.9625C32.251 41.0425 32.1899 41.1661 32.1899 41.2972V43.311C32.1899 44.2438 31.432 45 30.4971 45H24.7839C23.849 45 23.0911 44.2438 23.0911 43.311V41.1426C23.0911 40.9989 23.0178 40.8651 22.8967 40.7874L20.8789 39.4932C20.7638 39.4193 20.6199 39.4056 20.4929 39.4563L17.5779 40.6197C16.8248 40.9202 15.9638 40.6456 15.5252 39.9648L12.7305 35.6272C12.2442 34.8724 12.4343 33.87 13.1634 33.3446L15.7212 31.5014C15.8313 31.422 15.8966 31.2947 15.8966 31.1591V29.0109C15.8966 28.8892 15.8439 28.7733 15.7521 28.6932L13.4009 26.6405C12.7791 26.0976 12.6409 25.1862 13.0739 24.4841L15.5239 20.5118C15.9556 19.8119 16.8295 19.5235 17.5943 19.8288L20.4471 20.9674C20.5843 21.0221 20.7401 21.0015 20.8582 20.9131L22.4986 19.6856C22.6051 19.6059 22.6678 19.4807 22.6678 19.3478V16.9198ZM24.3607 16.4975C24.1269 16.4975 23.9375 16.6866 23.9375 16.9198V19.3478C23.9375 19.8794 23.6866 20.38 23.2603 20.699L21.62 21.9265C21.1474 22.2802 20.5241 22.3625 19.9756 22.1435L17.1227 21.0049C16.9316 20.9286 16.7131 21.0007 16.6051 21.1757L14.1552 25.148C14.0469 25.3235 14.0815 25.5514 14.2369 25.6871L16.5881 27.7398C16.9555 28.0605 17.1662 28.5239 17.1662 29.0109V31.1591C17.1662 31.7015 16.9052 32.2108 16.4645 32.5284L13.9067 34.3715C13.7244 34.5029 13.6769 34.7535 13.7985 34.9422L16.5932 39.2798C16.7029 39.45 16.9181 39.5186 17.1064 39.4435L20.0213 38.2801C20.5297 38.0772 21.1049 38.1322 21.5654 38.4276L23.5833 39.7218C24.0678 40.0326 24.3607 40.5679 24.3607 41.1426V43.311C24.3607 43.5442 24.5501 43.7332 24.7839 43.7332H30.4971C30.7309 43.7332 30.9203 43.5442 30.9203 43.311V41.2972C30.9203 40.7728 31.1644 40.2782 31.581 39.9585L33.4197 38.5472C33.9119 38.1695 34.5719 38.0909 35.1393 38.3426L37.5435 39.4087C37.7344 39.4933 37.9585 39.4264 38.0714 39.2512L40.8939 34.8705C41.0077 34.6939 40.9741 34.4606 40.815 34.3231L38.6989 32.4932C38.3279 32.1724 38.1148 31.7067 38.1148 31.2168V28.9692C38.1148 28.5212 38.2931 28.0916 38.6106 27.7749L40.6554 25.7346C40.797 25.5933 40.82 25.3723 40.7104 25.205L38.0761 21.1851C37.9625 21.0118 37.7397 20.9462 37.55 21.0303L35.0663 22.1317C34.5623 22.3552 33.9808 22.3197 33.5078 22.0366L31.319 20.7263C30.8091 20.421 30.4971 19.8712 30.4971 19.2779V16.9198C30.4971 16.6866 30.3076 16.4975 30.0739 16.4975H24.3607Z" fill="black"/>
<path fill-rule="evenodd" clip-rule="evenodd" d="M27.3462 38.1302C31.0667 38.1302 34.0828 34.8518 34.0828 30.8077C34.0828 26.7636 31.0667 23.4852 27.3462 23.4852C23.6256 23.4852 20.6095 26.7636 20.6095 30.8077C20.6095 34.8518 23.6256 38.1302 27.3462 38.1302ZM27.3462 39.4616C31.7432 39.4616 35.3077 35.5871 35.3077 30.8077C35.3077 26.0283 31.7432 22.1539 27.3462 22.1539C22.9491 22.1539 19.3846 26.0283 19.3846 30.8077C19.3846 35.5871 22.9491 39.4616 27.3462 39.4616Z" fill="black"/>
</svg>
