<svg width="45" height="45" viewBox="0 0 45 45" fill="none" xmlns="http://www.w3.org/2000/svg">
<g clip-path="url(#clip0)">
<path d="M44.3056 9.07979H40.6417C40.7481 8.93045 40.8446 8.77355 40.9291 8.60909C41.4138 7.66221 41.4794 6.54709 41.109 5.54939L39.9986 2.56521C39.6285 1.56854 38.8509 0.767224 37.8659 0.366908C36.8799 -0.0337519 35.7631 -0.00182275 34.8014 0.454799L26.0144 4.62791C25.5801 4.31754 25.0489 4.13421 24.4756 4.13421H20.5246C19.9513 4.13421 19.4198 4.31788 18.9855 4.62825L10.1988 0.454455C9.23714 -0.00182271 8.1203 -0.0337519 7.13428 0.366908C6.14928 0.767224 5.37165 1.56854 5.00155 2.56487L3.89124 5.54973C3.52079 6.54709 3.58636 7.66221 4.07148 8.60909C4.1556 8.77355 4.25241 8.93079 4.35884 9.07979H0.694545C0.311052 9.07979 0 9.3905 0 9.77434V14.7742C0 15.1577 0.311052 15.4687 0.694545 15.4687C1.07804 15.4687 1.38909 15.1577 1.38909 14.7742V10.4685H6.21314C6.29039 10.4957 6.36866 10.5207 6.44797 10.5427L12.2786 12.1477C10.9829 14.1332 9.84001 16.2216 8.86154 18.3856H1.38909V17.552C1.38909 17.1685 1.07804 16.8578 0.694545 16.8578C0.311052 16.8578 0 17.1685 0 17.552V19.0801C0 19.4636 0.311052 19.7747 0.694545 19.7747H3.17129V44.3625C3.17129 44.7464 3.48234 45.0571 3.86583 45.0571H41.1344C41.5178 45.0571 41.8289 44.7464 41.8289 44.3625V40.3299C41.8289 39.9464 41.5178 39.6353 41.1344 39.6353C40.7505 39.6353 40.4398 39.9464 40.4398 40.3299V43.6683H26.6667V20.2018C28.6339 23.9279 29.9657 27.9795 30.5785 32.1656C30.619 32.4427 30.8223 32.6682 31.0938 32.7376C31.1508 32.7523 31.2085 32.7592 31.2658 32.7592C31.4804 32.7592 31.6871 32.6596 31.8203 32.4828C32.8187 31.1583 33.7471 29.7404 34.5851 28.2599C35.9886 29.2158 37.3513 30.2814 38.6442 31.435C38.8622 31.6293 39.1788 31.6668 39.4359 31.5281C39.6931 31.3897 39.8362 31.1051 39.7937 30.816C39.2392 27.0336 38.2055 23.314 36.7402 19.7747H40.4395V37.5517C40.4395 37.9355 40.7505 38.2462 41.134 38.2462C41.5178 38.2462 41.8286 37.9355 41.8286 37.5517V19.7747H44.3056C44.6891 19.7747 44.9998 19.4636 44.9998 19.0801V9.77434C45.0002 9.3905 44.6895 9.07979 44.3056 9.07979ZM35.3971 1.70931C36.0168 1.41542 36.7075 1.39551 37.343 1.65369C37.9775 1.91152 38.4581 2.40694 38.6968 3.0493L39.8067 6.03313C40.0457 6.67584 40.0048 7.36592 39.6924 7.976C39.3803 8.58575 38.8444 9.02177 38.1838 9.20339L27.1284 12.247V8.90916C29.6134 7.38755 35.8084 4.24922 37.3502 6.42555C37.5717 6.73832 38.005 6.81282 38.3181 6.59103C38.6312 6.36925 38.7053 5.93563 38.4836 5.62286C37.2936 3.94297 34.7859 3.86126 31.0296 5.38047C29.4823 6.00601 28.0537 6.76956 27.1284 7.29931V6.78673C27.1284 6.41491 27.0512 6.0606 26.9125 5.7389L35.3971 1.70931ZM20.5246 5.52295H24.4756C25.1725 5.52295 25.7394 6.09012 25.7394 6.78673V12.5275C25.7394 13.2244 25.1725 13.7912 24.4756 13.7912H20.5246C19.8277 13.7912 19.2608 13.2244 19.2608 12.5275V6.78673C19.2608 6.08978 19.8277 5.52295 20.5246 5.52295ZM19.3573 18.3853C20.0216 17.2815 20.7447 16.2117 21.5226 15.1803H23.4769C24.2552 16.2117 24.9782 17.2815 25.6422 18.3853H19.3573ZM5.30779 7.976C4.99537 7.36592 4.95451 6.67584 5.19312 6.03348L6.30378 3.04896C6.54204 2.40694 7.0227 1.91152 7.65716 1.65369C8.29231 1.39551 8.98342 1.41542 9.60278 1.70931L18.0877 5.73959C17.949 6.06094 17.8717 6.41491 17.8717 6.78707V7.33914C16.9496 6.80836 15.4887 6.02215 13.9019 5.38047C10.1459 3.86126 7.63793 3.94297 6.44797 5.62286C6.22618 5.93563 6.30034 6.36925 6.61345 6.59103C6.92657 6.81282 7.35984 6.73866 7.58128 6.42555C9.13757 4.22862 15.4345 7.44694 17.8717 8.95139V12.247L6.8167 9.20373C6.1558 9.02177 5.61987 8.58575 5.30779 7.976ZM18.1835 13.7734C18.5292 14.4202 19.1348 14.9081 19.8603 15.0959C16.6121 19.6277 14.376 24.8349 13.3272 30.3082C12.5894 29.2302 11.8996 28.1003 11.2682 26.9333C11.1759 26.7624 11.0166 26.6381 10.8281 26.5904C10.64 26.5426 10.4405 26.5759 10.2781 26.682C9.12144 27.4363 7.98881 28.2637 6.89498 29.1522C8.02143 23.2395 10.3488 17.5383 13.6863 12.5354L18.1835 13.7734ZM4.56038 19.7747H8.26004C6.79473 23.314 5.76098 27.0333 5.20617 30.816C5.16394 31.1051 5.30676 31.3897 5.56391 31.5281C5.8214 31.6664 6.13761 31.6293 6.35562 31.435C7.64858 30.2814 9.01123 29.2158 10.4151 28.2599C11.2531 29.7404 12.1811 31.1579 13.1799 32.4828C13.3131 32.6596 13.5198 32.7596 13.7343 32.7596C13.7917 32.7596 13.8494 32.7523 13.9063 32.7376C14.1779 32.6682 14.3808 32.4427 14.4213 32.1656C15.0345 27.9795 16.3663 23.9275 18.3332 20.2014V43.6683H4.56038V19.7747ZM19.7223 43.6683V19.7747H25.2779V43.6683H19.7223ZM34.7221 26.682C34.5597 26.5759 34.3599 26.543 34.1721 26.5907C33.9839 26.6384 33.8243 26.7627 33.7319 26.9333C33.1006 28.1003 32.4108 29.2305 31.673 30.3082C30.6242 24.8346 28.3881 19.6277 25.1396 15.0962C25.865 14.9088 26.471 14.4205 26.8167 13.7734L31.3149 12.535C34.6517 17.539 36.9791 23.2402 38.1055 29.1522C37.0114 28.2637 35.8787 27.4363 34.7221 26.682ZM43.6111 18.3856H36.139C35.1605 16.2216 34.0176 14.1332 32.7222 12.1477L38.5522 10.5427C38.6315 10.5207 38.7098 10.4957 38.787 10.4685H43.6111V18.3856Z" fill="black"/>
</g>
<defs>
<clipPath id="clip0">
<rect width="45" height="45" fill="white"/>
</clipPath>
</defs>
</svg>
