<svg width="33" height="35" viewBox="0 0 33 35" fill="none" xmlns="http://www.w3.org/2000/svg">
<path d="M28.7307 11.9726C28.7307 5.36033 23.2262 0 16.436 0C9.6458 0 4.14127 5.36033 4.14127 11.9726C2.38586 12.1855 0.726074 13.3029 0.726074 15.897V22.1494C0.726074 25.076 2.82984 26.1403 4.82431 26.1403H6.80512C7.18233 26.1403 7.48816 25.8424 7.48816 25.4751V12.5979C7.48816 12.2305 7.18233 11.9327 6.80512 11.9327H5.50735C5.50735 6.05516 10.4003 1.29038 16.436 1.29038C22.4717 1.29038 27.3646 6.05516 27.3646 11.9327H26.0668C25.6896 11.9327 25.3838 12.2305 25.3838 12.5979V25.4552C25.3838 25.8225 25.6896 26.1203 26.0668 26.1203H27.3646C27.1734 30.6899 24.9193 31.7607 20.4181 31.9536V31.508C20.4181 30.7732 19.8065 30.1777 19.052 30.1777H14.7557C14.0012 30.1777 13.3896 30.7732 13.3896 31.508V33.6697C13.3896 34.4044 14.0012 35 14.7557 35H19.0657C19.8202 35 20.4318 34.4044 20.4318 33.6697V33.2839C24.7622 33.091 28.5053 32.2197 28.7307 26.0804C30.4861 25.8675 32.1459 24.7501 32.1459 22.156V15.9036C32.1459 13.2963 30.4929 12.1855 28.7307 11.9726ZM6.12208 13.2165V24.79H4.79016C3.77926 24.79 2.058 24.4441 2.058 22.1294V15.877C2.058 13.5823 3.75877 13.2165 4.79016 13.2165H6.12208ZM19.0657 32.6653V33.6764H14.7557V31.5146H19.0657V32.6653ZM30.7798 22.1494C30.7798 24.4441 29.079 24.81 28.0476 24.81H26.7499V13.263H28.0818C29.0927 13.263 30.8139 13.6089 30.8139 15.9236L30.7798 22.1494Z" fill="black"/>
</svg>
