<svg width="37" height="32" viewBox="0 0 37 32" fill="none" xmlns="http://www.w3.org/2000/svg">
<path d="M28.956 24.5559C28.6374 24.3407 28.2 24.4181 27.9792 24.7284C27.7653 25.0292 27.5228 25.3216 27.2582 25.5977C27.081 25.7829 26.8371 26.0062 26.5718 26.226C26.2765 26.4707 26.2408 26.9022 26.4921 27.1897C26.6309 27.3486 26.8284 27.4302 27.0271 27.4302C27.1879 27.4302 27.3495 27.3767 27.4817 27.2672C27.7913 27.0106 28.0692 26.7557 28.285 26.5301C28.5954 26.2062 28.8808 25.862 29.1333 25.5071C29.3541 25.1968 29.2747 24.7709 28.956 24.5559Z" fill="black"/>
<path d="M25.8973 27.621C25.7326 27.2792 25.3148 27.1321 24.9636 27.2924L24.9416 27.302C24.5869 27.4544 24.4263 27.858 24.5829 28.2034C24.6988 28.4591 24.9558 28.6112 25.2255 28.6112C25.3202 28.6112 25.4164 28.5924 25.5085 28.5528C25.5256 28.5455 25.5426 28.538 25.5597 28.5302C25.9107 28.3699 26.0618 27.9629 25.8973 27.621Z" fill="black"/>
<path d="M34.2267 0H2.47949C1.32305 0 0.382324 0.916219 0.382324 2.04223V21.2C0.382324 22.326 1.32305 23.2421 2.47949 23.2421H17.2622C17.8889 25.8241 19.306 27.6527 20.5445 28.8242C22.3522 30.5344 24.4245 31.4452 25.2254 31.4452C26.0262 31.4452 28.0984 30.5345 29.9063 28.8243C31.1448 27.6527 32.5619 25.8241 33.1885 23.2422H34.2267C35.3831 23.2422 36.3238 22.3261 36.3238 21.2001V2.04223C36.3238 0.916219 35.3831 0 34.2267 0ZM32.1119 20.4406C32.112 24.0424 30.4047 26.4314 28.9723 27.8014C27.2733 29.4265 25.5305 30.0587 25.2254 30.0779C24.9202 30.0587 23.1773 29.4266 21.4783 27.8014C20.0461 26.4314 18.3388 24.0424 18.3388 20.4406V17.0742C20.7557 16.3936 23.0172 15.462 25.2256 14.2379C27.3842 15.4309 29.7471 16.4039 32.1119 17.0738V20.4406ZM34.9199 21.2C34.9199 21.5722 34.6088 21.875 34.2267 21.875H33.4327C33.4864 21.4169 33.5159 20.9392 33.5159 20.4406V16.5559C33.5159 16.2474 33.3036 15.9771 32.9979 15.8963C30.4488 15.2222 27.8837 14.1718 25.58 12.8586C25.3609 12.7338 25.0898 12.734 24.8707 12.8588C22.5016 14.2092 20.0752 15.2026 17.4528 15.8963C17.1471 15.9772 16.9348 16.2474 16.9348 16.5559V20.4406C16.9348 20.9392 16.9643 21.4169 17.0181 21.875H2.47949C2.09726 21.875 1.78629 21.5721 1.78629 21.2V9.57016H34.9199V21.2ZM34.9199 8.20304H1.78629V5.46881H34.9199V8.20304ZM34.9199 4.10155H1.78629V2.04223C1.78629 1.67002 2.09726 1.36718 2.47949 1.36718H34.2267C34.6088 1.36718 34.9199 1.67002 34.9199 2.04223V4.10155Z" fill="black"/>
<path d="M8.806 14.3555C8.38277 14.3555 7.96488 14.4388 7.57809 14.5977C7.20022 14.4417 6.78492 14.3555 6.34941 14.3555C4.60759 14.3555 3.19043 15.7354 3.19043 17.4315C3.19043 19.1276 4.60752 20.5077 6.34941 20.5077C6.78492 20.5077 7.20022 20.4214 7.57802 20.2655C7.96488 20.4243 8.38277 20.5077 8.806 20.5077C10.5479 20.5077 11.9651 19.1276 11.9651 17.4315C11.9651 15.7354 10.5479 14.3555 8.806 14.3555ZM6.34941 19.1405C5.38166 19.1405 4.59439 18.3739 4.59439 17.4315C4.59439 16.4892 5.38166 15.7227 6.34941 15.7227C7.31703 15.7227 8.1043 16.4892 8.1043 17.4315C8.1043 18.3738 7.31703 19.1405 6.34941 19.1405ZM8.98002 19.1321C9.31346 18.6447 9.50826 18.0599 9.50826 17.4316C9.50826 16.8033 9.31346 16.2186 8.98009 15.7311C9.86634 15.8164 10.561 16.5465 10.561 17.4316C10.561 18.3166 9.86634 19.0468 8.98002 19.1321Z" fill="black"/>
<path d="M7.50319 11.2793H3.89241C3.50471 11.2793 3.19043 11.5853 3.19043 11.9629C3.19043 12.3404 3.50471 12.6465 3.89241 12.6465H7.50319C7.8909 12.6465 8.20517 12.3403 8.20517 11.9629C8.20517 11.5853 7.8909 11.2793 7.50319 11.2793Z" fill="black"/>
<path d="M9.57803 11.2793H9.54475C9.15705 11.2793 8.84277 11.5853 8.84277 11.9629C8.84277 12.3404 9.15705 12.6465 9.54475 12.6465H9.57803C9.96566 12.6465 10.28 12.3403 10.28 11.9629C10.28 11.5853 9.96566 11.2793 9.57803 11.2793Z" fill="black"/>
<path d="M29.0788 18.8691C28.8048 18.6023 28.3603 18.6022 28.0861 18.869L24.3321 22.5244L22.3649 20.6086C22.0907 20.3419 21.6462 20.3418 21.3721 20.6086C21.098 20.8757 21.0979 21.3085 21.3721 21.5755L23.8357 23.9746C23.9728 24.1081 24.1525 24.1749 24.3321 24.1749C24.5117 24.1749 24.6914 24.1081 24.8284 23.9746L29.0787 19.8359C29.3529 19.569 29.3529 19.1362 29.0788 18.8691Z" fill="black"/>
</svg>
