<svg width="35" height="35" viewBox="0 0 35 35" fill="none" xmlns="http://www.w3.org/2000/svg">
<g clip-path="url(#clip0)">
<path d="M17.4678 13.5703C15.1308 13.5703 13.2359 15.4651 13.2359 17.8021C13.2359 20.1395 15.1308 22.034 17.4678 22.034C19.8051 22.034 21.6997 20.1395 21.6997 17.8021C21.697 15.4663 19.8039 13.5729 17.4678 13.5703V13.5703ZM17.4678 20.8249C15.7985 20.8249 14.445 19.4718 14.445 17.8021C14.445 16.1328 15.7985 14.7794 17.4678 14.7794C19.1374 14.7794 20.4906 16.1328 20.4906 17.8021C20.4888 19.4709 19.1365 20.8231 17.4678 20.8249V20.8249Z" fill="black"/>
<path d="M4.77218 11.7566H5.98129V10.5475H4.16763C3.83377 10.5475 3.56308 10.8182 3.56308 11.1521V12.9657H4.77218V11.7566Z" fill="black"/>
<path d="M4.77218 22.6386H3.56308V24.4522C3.56308 24.7864 3.83377 25.0568 4.16763 25.0568H5.98129V23.8477H4.77218V22.6386Z" fill="black"/>
<path d="M1.14488 8.73385V26.8704C1.14488 27.2046 1.41557 27.475 1.74944 27.475H33.1862C33.5204 27.475 33.7907 27.2046 33.7907 26.8704V8.73385C33.7907 8.39999 33.5204 8.1293 33.1862 8.1293H1.74944C1.41557 8.1293 1.14488 8.39999 1.14488 8.73385V8.73385ZM2.35399 9.3384H32.5816V26.2659H2.35399V9.3384Z" fill="black"/>
<path d="M30.768 14.7794C28.7657 14.7776 27.1427 13.1546 27.1407 11.1521C27.1407 10.8182 26.8703 10.5475 26.5361 10.5475H8.39951C8.06564 10.5475 7.79495 10.8182 7.79495 11.1521C7.79318 13.1546 6.17022 14.7776 4.16763 14.7794C3.83377 14.7794 3.56308 15.0501 3.56308 15.3839V20.2204C3.56308 20.5545 3.83377 20.8249 4.16763 20.8249C6.17022 20.827 7.79318 22.4499 7.79495 24.4522C7.79495 24.7864 8.06564 25.0568 8.39951 25.0568H26.5361C26.8703 25.0568 27.1407 24.7864 27.1407 24.4522C27.1427 22.4499 28.7657 20.827 30.768 20.8249C31.1021 20.8249 31.3725 20.5545 31.3725 20.2204V15.3839C31.3725 15.0501 31.1021 14.7794 30.768 14.7794V14.7794ZM30.1634 19.6533C27.9734 19.9331 26.2489 21.6576 25.969 23.8477H8.96657C8.68673 21.6576 6.96251 19.9331 4.77219 19.6533V15.951C6.96251 15.6712 8.68673 13.9469 8.96657 11.7566H25.969C26.2489 13.9469 27.9734 15.6712 30.1634 15.951V19.6533Z" fill="black"/>
<path d="M30.768 10.5475H28.9544V11.7566H30.1635V12.9657H31.3726V11.1521C31.3726 10.8182 31.1022 10.5475 30.768 10.5475Z" fill="black"/>
<path d="M30.1635 23.8477H28.9544V25.0568H30.768C31.1022 25.0568 31.3726 24.7864 31.3726 24.4522V22.6386H30.1635V23.8477Z" fill="black"/>
<path d="M9.30632 3.66363L9.91087 4.70949C14.0226 2.33851 19.0093 2.03682 23.3769 3.89447L20.825 5.16999L21.3655 6.25217L24.9928 4.43851C25.1369 4.36766 25.2467 4.24191 25.298 4.08988C25.3494 3.93757 25.3382 3.77108 25.2667 3.62732L23.4531 0L22.3709 0.540497L23.3985 2.59592C18.7829 0.793476 13.5981 1.18608 9.30632 3.66363V3.66363Z" fill="black"/>
<path d="M25.0247 31.3364L24.4202 30.2906C20.3088 32.6612 15.3224 32.9632 10.955 31.1056L13.507 29.8298L12.9665 28.7476L9.33914 30.5612C9.04011 30.7106 8.91878 31.074 9.06845 31.3727L10.8821 35L11.964 34.4595L10.9364 32.4041C15.5512 34.2054 20.7344 33.8128 25.0247 31.3364Z" fill="black"/>
</g>
<defs>
<clipPath id="clip0">
<rect width="35" height="35" fill="white"/>
</clipPath>
</defs>
</svg>
