<svg width="16" height="20" viewBox="0 0 16 20" fill="none" xmlns="http://www.w3.org/2000/svg">
<path d="M12.0934 0.404013L12.0723 0L11.6702 0.0432735C11.6308 0.0474859 7.74419 0.515835 7.47766 4.86118L7.45085 5.29621L7.88588 5.26673C7.93031 5.26366 12.3323 4.9125 12.0934 0.404013ZM11.3347 0.889212C11.2616 3.50783 9.2243 4.2362 8.28913 4.43266C8.64528 1.88795 10.4907 1.11247 11.3347 0.889212Z" fill="black"/>
<path d="M15.8394 14.3672L15.5947 14.2879C14.1138 13.8092 13.1193 12.4528 13.1193 10.9126C13.1193 9.54236 13.894 8.31692 15.1417 7.71416L15.5139 7.53455L15.3063 7.17726C15.2175 7.02408 14.3869 5.66728 12.6322 5.21808C11.2405 4.86194 9.6758 5.17711 7.97971 6.15516C7.26168 5.71936 4.87666 4.46328 2.97914 5.72243C2.60767 5.92769 -1.32945 8.28628 0.719725 14.6502C0.779848 14.7926 2.20864 18.14 3.89937 19.3938C4.35546 19.8296 5.52193 20.3741 6.85498 19.4654C7.0859 19.37 8.63111 18.7753 9.61146 19.4719C9.97335 19.7197 10.6052 20.0004 11.2727 20.0004C11.779 20.0004 12.3055 19.8392 12.7505 19.3796C12.9581 19.2 14.8541 17.5077 15.8394 14.8271L15.8681 14.749L15.8394 14.3672ZM12.2389 18.8086L12.2094 18.8366C11.3696 19.7185 10.0963 18.8749 10.0492 18.8435C9.54828 18.4873 8.96811 18.3713 8.42393 18.3713C7.4363 18.3713 6.56777 18.7539 6.51224 18.7788L6.44982 18.814C5.29369 19.6209 4.50213 18.9109 4.41827 18.8301L4.37308 18.7914C2.84395 17.6762 1.43852 14.3848 1.43661 14.3836C-0.48121 8.42185 3.19282 6.47186 3.34907 6.39259L3.39119 6.3677C5.17076 5.17289 7.72888 6.9023 7.75415 6.91953L7.95826 7.05969L8.16965 6.93217C9.76273 5.96905 11.2003 5.64162 12.4422 5.95986C13.454 6.21873 14.0989 6.85098 14.4144 7.23968C13.1327 8.02511 12.3538 9.39569 12.3538 10.9126C12.3538 12.6573 13.4011 14.2075 14.9969 14.8818C14.0146 17.2795 12.2577 18.7929 12.2389 18.8086Z" fill="black"/>
</svg>
