<svg width="20" height="19" viewBox="0 0 20 19" fill="none" xmlns="http://www.w3.org/2000/svg">
<path fill-rule="evenodd" clip-rule="evenodd" d="M10 0.625C8.6495 0.625 7.52063 1.5772 7.2495 2.84709C7.20894 3.0372 7.1875 3.23468 7.1875 3.4375C7.1875 4.9908 8.44669 6.25 10 6.25C10.2569 6.25 10.5056 6.21563 10.7417 6.15125C10.1097 5.76775 9.6875 5.07329 9.6875 4.27991C9.6875 3.07179 10.6669 2.09241 11.875 2.09241C12.1051 2.09241 12.3391 2.12181 12.5628 2.18441C12.1015 1.25621 11.1206 0.625 10 0.625ZM13.3691 2.57518C12.9939 1.07214 11.6044 0 10 0C8.4065 0 7.06681 1.08401 6.677 2.55465C4.32331 3.56411 2.52131 5.61314 1.84886 8.12519C0.825375 8.13919 0 8.97319 0 10C0 10.9784 0.749412 11.7818 1.70554 11.8674C2.43546 15.7846 5.87116 18.75 10 18.75C14.1288 18.75 17.5646 15.7846 18.2944 11.8674C19.2506 11.7818 20 10.9784 20 10C20 8.97319 19.1746 8.13913 18.1511 8.12519C17.4837 5.63718 15.6875 3.59529 13.3691 2.57518ZM18.2952 8.7615C18.3887 9.26444 18.4375 9.78287 18.4375 10.3125C18.4375 10.6197 18.4211 10.9232 18.389 11.2221C18.9526 11.1009 19.375 10.5997 19.375 10C19.375 9.36738 18.9051 8.8445 18.2952 8.7615ZM1.61098 11.2221C1.57893 10.9232 1.5625 10.6197 1.5625 10.3125C1.5625 9.78287 1.61133 9.26444 1.70481 8.7615C1.09496 8.8445 0.625 9.36738 0.625 10C0.625 10.5997 1.04742 11.1009 1.61098 11.2221ZM6.5655 3.2934C4.49027 4.3108 2.93248 6.22156 2.39326 8.52331C2.25873 9.09756 2.1875 9.6965 2.1875 10.3125C2.1875 10.7206 2.21876 11.1212 2.27897 11.5121C2.85591 15.2573 6.09334 18.125 10 18.125C13.9067 18.125 17.1441 15.2573 17.721 11.5121C17.7812 11.1212 17.8125 10.7206 17.8125 10.3125C17.8125 9.6965 17.7412 9.09756 17.6067 8.52331C17.0312 6.06637 15.2686 4.04274 12.9787 3.08783C12.9504 3.07602 12.924 3.06011 12.9003 3.04061C12.6457 2.83093 12.2745 2.71741 11.875 2.71741C11.0121 2.71741 10.3125 3.41697 10.3125 4.27991C10.3125 5.05986 10.8843 5.70684 11.6314 5.82359C11.7619 5.84397 11.8654 5.94413 11.8902 6.07375C11.9149 6.20344 11.8555 6.33469 11.7418 6.40163C11.2308 6.7025 10.6351 6.875 10 6.875C8.1015 6.875 6.5625 5.33598 6.5625 3.4375C6.5625 3.38924 6.5635 3.3412 6.5655 3.2934ZM6.875 10C6.35725 10 5.9375 10.4197 5.9375 10.9375C5.9375 11.1101 5.79759 11.25 5.625 11.25C5.45241 11.25 5.3125 11.1101 5.3125 10.9375C5.3125 10.0746 6.01206 9.375 6.875 9.375C7.73794 9.375 8.4375 10.0746 8.4375 10.9375C8.4375 11.1101 8.29756 11.25 8.125 11.25C7.95244 11.25 7.8125 11.1101 7.8125 10.9375C7.8125 10.4197 7.39275 10 6.875 10ZM13.125 10C12.6072 10 12.1875 10.4197 12.1875 10.9375C12.1875 11.1101 12.0476 11.25 11.875 11.25C11.7024 11.25 11.5625 11.1101 11.5625 10.9375C11.5625 10.0746 12.2621 9.375 13.125 9.375C13.9879 9.375 14.6875 10.0746 14.6875 10.9375C14.6875 11.1101 14.5476 11.25 14.375 11.25C14.2024 11.25 14.0625 11.1101 14.0625 10.9375C14.0625 10.4197 13.6428 10 13.125 10ZM8.75 13.125C8.92256 13.125 9.0625 13.2649 9.0625 13.4375C9.0625 13.9553 9.48225 14.375 10 14.375C10.5178 14.375 10.9375 13.9553 10.9375 13.4375C10.9375 13.2649 11.0774 13.125 11.25 13.125C11.4226 13.125 11.5625 13.2649 11.5625 13.4375C11.5625 14.3004 10.8629 15 10 15C9.13706 15 8.4375 14.3004 8.4375 13.4375C8.4375 13.2649 8.57744 13.125 8.75 13.125Z" fill="black"/>
</svg>
