<svg width="20" height="20" viewBox="0 0 15 21" fill="none" xmlns="http://www.w3.org/2000/svg">
<path fill-rule="evenodd" clip-rule="evenodd" d="M3.40801 11.976C3.48001 12.072 3.57601 12.12 3.67201 12.12C3.72001 12.12 3.79201 12.096 3.84001 12.072C3.92186 12.0311 3.97269 11.9514 3.9837 11.8638C4.24475 11.9428 4.53259 12 4.8 12C5.01599 12 5.20799 11.976 5.37599 11.856C6.02399 11.496 6.21599 10.992 5.92799 10.368C5.92119 10.3612 5.81309 10.1362 5.65639 9.81009C5.26299 8.99159 4.56362 7.53627 4.392 7.296C4.008 6.768 3.432 7.008 3.048 7.224C2.69491 7.43978 2.46607 7.78379 2.3189 8.11849C2.03271 7.26215 1.82401 6.3647 1.82401 5.568C1.82401 3.168 3.79201 0.576 7.03199 0.576C10.272 0.576 12.264 3.168 12.264 5.568C12.264 6.38046 12.0511 7.29329 11.7604 8.16029C11.6139 7.81619 11.3816 7.46122 11.016 7.24799C10.632 7.00799 10.08 6.76799 9.67199 7.31999C9.50039 7.56026 8.80109 9.01549 8.40769 9.83399C8.25099 10.1601 8.14289 10.3852 8.13599 10.392C7.84799 11.016 8.03999 11.52 8.68799 11.88C8.85599 11.976 9.04799 12 9.26399 12C9.53209 12 9.83109 11.938 10.1041 11.854C10.1144 11.9383 10.1655 12.017 10.248 12.072C10.392 12.168 10.56 12.12 10.656 11.976C10.6767 11.9449 10.7914 11.7551 10.9584 11.4495C10.9697 11.4328 10.9791 11.4153 10.9869 11.3972C11.6049 10.258 12.864 7.66739 12.864 5.592C12.864 2.904 10.632 0 7.03199 0C3.43201 0 1.20001 2.904 1.20001 5.592C1.20001 8.27999 3.31201 11.832 3.40801 11.976ZM10.4958 11.0524C10.7409 10.5917 11.0818 9.90789 11.399 9.13009C11.3871 9.00459 11.269 8.09099 10.704 7.75199C10.272 7.48799 10.2 7.58399 10.128 7.67999C9.99839 7.87439 9.13019 9.70149 8.78289 10.4325C8.74429 10.5137 8.71199 10.5816 8.68799 10.632C8.54399 10.92 8.56799 11.112 8.97599 11.352C9.28139 11.5164 10.2306 11.244 10.4958 11.0524ZM2.67031 9.06619C2.69929 8.84689 2.84134 8.01849 3.36 7.72799C3.816 7.488 3.888 7.584 3.936 7.65599C4.104 7.87199 5.15999 10.104 5.39999 10.632C5.54399 10.944 5.54399 11.136 5.11199 11.352C4.81233 11.5364 3.87057 11.2559 3.60522 11.0633C3.35449 10.5898 2.99833 9.87599 2.67031 9.06619Z" fill="black"/>
<path d="M12.096 20.6401C12 20.6401 11.904 20.5681 11.904 20.4481V14.9281C11.904 14.8321 11.976 14.7361 12.096 14.7361C12.216 14.7361 12.288 14.8081 12.288 14.9281V20.4481C12.288 20.5441 12.192 20.6401 12.096 20.6401Z" fill="black"/>
<path d="M1.96799 20.6401C1.87199 20.6401 1.776 20.5681 1.776 20.4481V14.9281C1.776 14.8321 1.84799 14.7361 1.96799 14.7361C2.08799 14.7361 2.15999 14.8081 2.15999 14.9281V20.4481C2.15999 20.5441 2.06399 20.6401 1.96799 20.6401Z" fill="black"/>
<path d="M9 18V17.5H7H5V18H7H9Z" fill="black"/>
<path d="M12.096 20.76H2.112C0.816 20.76 0 19.728 0 19.008V16.368C0 15.672 0.84 14.616 2.112 14.616H12.096C13.464 14.616 14.04 15.696 14.04 16.128V19.248C14.064 19.68 13.464 20.76 12.096 20.76ZM2.112 15.216C1.2 15.216 0.6 15.96 0.6 16.368V19.008C0.6 19.392 1.176 20.16 2.112 20.16H12.096C13.152 20.16 13.44 19.368 13.44 19.248V16.128C13.44 16.008 13.104 15.216 12.096 15.216H2.112Z" fill="black"/>
</svg>
