<svg width="20" height="20" viewBox="0 0 20 20" fill="none" xmlns="http://www.w3.org/2000/svg">
<path fill-rule="evenodd" clip-rule="evenodd" d="M8.10755 2.8125C7.85375 2.8125 7.6108 2.9154 7.4342 3.09769L5.74907 4.83718C5.45475 5.141 5.04982 5.3125 4.62682 5.3125H2.1875C1.32455 5.3125 0.625 6.01205 0.625 6.875V15.625C0.625 16.4879 1.32456 17.1875 2.1875 17.1875H17.8125C18.6754 17.1875 19.375 16.4879 19.375 15.625V6.875C19.375 6.01206 18.6754 5.3125 17.8125 5.3125H15.3732C14.9502 5.3125 14.5452 5.141 14.2509 4.83718L12.5658 3.09769C12.3892 2.9154 12.1462 2.8125 11.8924 2.8125H8.10755ZM6.9853 2.66282C7.27962 2.359 7.68455 2.1875 8.10755 2.1875H11.8924C12.3154 2.1875 12.7204 2.359 13.0147 2.66282L14.6998 4.40231C14.8764 4.5846 15.1194 4.6875 15.3732 4.6875H17.8125C19.0206 4.6875 20 5.66688 20 6.875V15.625C20 16.8331 19.0206 17.8125 17.8125 17.8125H2.1875C0.979378 17.8125 0 16.8331 0 15.625V6.875C0 5.66688 0.979377 4.6875 2.1875 4.6875H4.62682C4.88062 4.6875 5.12358 4.5846 5.30017 4.40231L6.9853 2.66282ZM10 6.5625C7.75634 6.5625 5.9375 8.38134 5.9375 10.625C5.9375 12.8687 7.75634 14.6875 10 14.6875C12.2437 14.6875 14.0625 12.8687 14.0625 10.625C14.0625 8.38134 12.2437 6.5625 10 6.5625ZM5.3125 10.625C5.3125 8.03617 7.41117 5.9375 10 5.9375C12.5888 5.9375 14.6875 8.03617 14.6875 10.625C14.6875 13.2138 12.5888 15.3125 10 15.3125C7.41117 15.3125 5.3125 13.2138 5.3125 10.625ZM15.9375 7.1875C15.9375 6.84232 16.2173 6.5625 16.5625 6.5625C16.9077 6.5625 17.1875 6.84232 17.1875 7.1875C17.1875 7.53268 16.9077 7.8125 16.5625 7.8125C16.2173 7.8125 15.9375 7.53268 15.9375 7.1875Z" fill="black"/>
</svg>