<svg width="20" height="18" viewBox="0 0 20 18" fill="none" xmlns="http://www.w3.org/2000/svg">
<path d="M19.7071 13.3907C19.8689 13.3907 20 13.2595 20 13.0977V12.5311C20 11.9583 19.5627 11.4924 19.0252 11.4924H18.551V10.8921C18.551 10.472 18.2093 10.1303 17.7893 10.1303H15.4311C15.011 10.1303 14.6693 10.4721 14.6693 10.8921V12.4554C12.5627 12.2096 9.94047 12.2092 7.83031 12.4554V10.8921C7.83031 10.472 7.48856 10.1303 7.06856 10.1303H6.88223C8.48828 9.15229 10.2844 7.82608 11.6848 6.53448L12.6045 7.7987C12.8519 8.13893 13.3296 8.21327 13.6686 7.96667L15.5757 6.57956C15.5757 6.57956 15.5757 6.57956 15.5757 6.57952C15.9153 6.33249 15.9907 5.85511 15.7436 5.51538L15.3905 5.02992L15.7739 4.75105C16.2086 4.4348 16.2882 3.80074 15.9513 3.33754L14.3611 1.15125C14.0241 0.688128 13.3964 0.56848 12.9617 0.88469L12.5782 1.16363L12.2251 0.678206C11.9781 0.338441 11.5007 0.263168 11.161 0.510198L9.25391 1.89731C8.91426 2.14434 8.83891 2.62172 9.08598 2.96144L10.0055 4.22566C8.15688 5.2664 6.03653 6.80823 4.47489 8.2485L3.79844 7.31862C3.4175 6.79491 2.68047 6.67851 2.15684 7.05952L0.918326 7.96034C0.394342 8.34155 0.278131 9.07796 0.659263 9.60198L0.769185 9.75311L0.385787 10.032C-0.057611 10.3544 -0.121634 10.9917 0.208404 11.4455L1.79864 13.6317C1.97262 13.871 2.22762 14.0231 2.49957 14.0635V15.2345C2.49957 15.8073 2.93692 16.2733 3.47446 16.2733H3.9486V16.8736C3.9486 17.2936 4.29036 17.6354 4.71035 17.6354H7.06856C7.48859 17.6354 7.83031 17.2936 7.83031 16.8736V15.3104C8.66293 15.4073 9.59891 15.4682 10.5603 15.4876C10.5623 15.4876 10.5643 15.4876 10.5663 15.4876C10.7254 15.4876 10.8559 15.3603 10.8591 15.2005C10.8624 15.0388 10.7339 14.905 10.5721 14.9017C9.60273 14.8822 8.66105 14.8198 7.83031 14.7205V13.0451C9.90285 12.7967 12.5537 12.7916 14.6693 13.0451V14.7205C13.8386 14.8198 12.8969 14.8822 11.9275 14.9017C11.7658 14.905 11.6372 15.0388 11.6405 15.2005C11.6437 15.3603 11.7742 15.4876 11.9333 15.4876C11.9353 15.4876 11.9373 15.4876 11.9393 15.4876C12.9007 15.4682 13.8367 15.4073 14.6693 15.3104V16.8736C14.6693 17.2936 15.0111 17.6354 15.4311 17.6354H17.7893C18.2093 17.6354 18.551 17.2936 18.551 16.8736V16.2733H19.0252C19.5627 16.2733 20 15.8073 20 15.2345V14.465C20 14.3032 19.8689 14.172 19.7071 14.172C19.5453 14.172 19.4141 14.3032 19.4141 14.465V15.2345C19.4141 15.48 19.236 15.6874 19.0252 15.6874H18.551V12.0784H19.0252C19.236 12.0784 19.4141 12.2857 19.4141 12.5312V13.0978C19.4141 13.2596 19.5453 13.3907 19.7071 13.3907ZM13.3063 1.35856C13.4768 1.23465 13.7428 1.2975 13.8871 1.49598L15.4774 3.68226C15.6218 3.8807 15.5997 4.1532 15.4292 4.27718L15.0458 4.55605C14.8084 4.22957 13.1642 1.96914 12.9229 1.63742L13.3063 1.35856ZM9.55984 2.61684C9.50383 2.53976 9.52156 2.4273 9.59859 2.37125L11.5057 0.984104C11.583 0.927893 11.6953 0.946057 11.7512 1.02289C11.8698 1.18594 14.6027 4.94312 14.7442 5.13773C14.7443 5.13781 14.7443 5.13789 14.7444 5.13796L15.2697 5.86007C15.3257 5.93714 15.308 6.0496 15.2309 6.10566L13.3238 7.4928C13.2464 7.54905 13.1351 7.5321 13.0783 7.45401C12.9627 7.29515 9.69934 2.80859 9.55984 2.61684ZM10.3525 4.70269L11.338 6.05753C9.81371 7.47222 7.67566 9.03612 5.80719 10.0801L4.82184 8.7255C6.34199 7.31452 8.48133 5.74816 10.3525 4.70269ZM2.49957 12.5311V13.4611C2.41243 13.4287 2.33188 13.3686 2.27258 13.287L0.682349 11.1008C0.531373 10.8933 0.565123 10.6262 0.730513 10.5058L1.11391 10.227C1.1604 10.2909 1.52434 10.7912 2.55016 12.2016C2.51524 12.3126 2.49957 12.4271 2.49957 12.5311ZM3.9486 15.6873H3.47446C3.26368 15.6873 3.08555 15.48 3.08555 15.2345C3.08555 14.9698 3.08555 12.807 3.08555 12.5311C3.08555 12.4287 3.11934 12.3182 3.18625 12.2314C3.26594 12.1279 3.37371 12.0783 3.47446 12.0783H3.94856V15.6873H3.9486ZM3.9486 10.892V11.4923H3.47446C3.45067 11.4923 3.42711 11.4935 3.40371 11.4954C3.39957 11.4957 3.39543 11.496 3.39129 11.4964C3.20989 11.5128 3.04254 11.5823 2.90297 11.6903L1.13317 9.25721C0.942076 8.99456 1.00032 8.6253 1.26301 8.43421L2.50153 7.53339C2.76305 7.34304 3.13418 7.40151 3.32454 7.66327C3.53786 7.95651 4.89067 9.81639 5.11895 10.1302H4.71032C4.29036 10.1302 3.9486 10.472 3.9486 10.892ZM7.24438 16.8736C7.24438 16.9688 7.16387 17.0493 7.06859 17.0493H4.71039C4.61512 17.0493 4.53461 16.9688 4.53461 16.8736C4.53461 16.5978 4.53461 11.0718 4.53461 10.8921C4.53461 10.7968 4.61512 10.7163 4.71039 10.7163C5.3066 10.7163 5.63578 10.7163 5.80715 10.7163C5.93067 10.7163 5.97223 10.7163 5.97258 10.7163C6.14387 10.7163 6.47285 10.7163 7.06859 10.7163C7.16387 10.7163 7.24438 10.7968 7.24438 10.8921C7.24438 11.2546 7.24438 16.6506 7.24438 16.8736ZM17.9651 16.8736C17.9651 16.9688 17.8846 17.0493 17.7893 17.0493H15.4311C15.3358 17.0493 15.2553 16.9688 15.2553 16.8736V10.8921C15.2553 10.7968 15.3358 10.7163 15.4311 10.7163H17.7893C17.8846 10.7163 17.9651 10.7968 17.9651 10.8921C17.9651 11.2529 17.9651 16.68 17.9651 16.8736Z" fill="black"/>
</svg>
