<svg width="20" height="20" viewBox="0 0 20 20" fill="none" xmlns="http://www.w3.org/2000/svg">
<path fill-rule="evenodd" clip-rule="evenodd" d="M0 6.6165C0 3.94338 2.35038 1.87966 5.00105 2.2254L14.1838 3.42315C14.6507 3.48405 15 3.88188 15 4.35277V8.88023C15 9.35112 14.6507 9.74895 14.1838 9.80985L6.94832 10.7536L8.13601 15.649C8.33847 16.4835 7.82959 17.325 6.99653 17.5332L5.66771 17.8654C4.82847 18.0753 3.97847 17.5632 3.77159 16.7233L2.22923 10.4609C0.907835 9.70281 0 8.27751 0 6.6165ZM2.955 10.7942L4.37846 16.5738C4.50258 17.0778 5.01258 17.385 5.51613 17.2591L6.84494 16.9269C7.34478 16.8019 7.65011 16.297 7.52863 15.7963L6.32491 10.8349L5.00105 11.0076C4.28401 11.1011 3.58819 11.0181 2.955 10.7942ZM4.92021 2.84515C2.64366 2.54821 0.625 4.32066 0.625 6.6165C0.625 8.08634 1.45206 9.3421 2.64677 9.97766C3.31645 10.3339 4.10096 10.4947 4.92021 10.3878L14.1029 9.1901C14.2586 9.1698 14.375 9.03719 14.375 8.88023V4.35277C14.375 4.19581 14.2586 4.0632 14.1029 4.0429L4.92021 2.84515ZM4.6875 4.7415C3.65197 4.7415 2.8125 5.58097 2.8125 6.6165C2.8125 7.65203 3.65197 8.4915 4.6875 8.4915C5.72303 8.4915 6.5625 7.65203 6.5625 6.6165C6.5625 5.58097 5.72303 4.7415 4.6875 4.7415ZM2.1875 6.6165C2.1875 5.23579 3.30679 4.1165 4.6875 4.1165C6.06821 4.1165 7.1875 5.23579 7.1875 6.6165C7.1875 7.99721 6.06821 9.1165 4.6875 9.1165C3.30679 9.1165 2.1875 7.99721 2.1875 6.6165ZM15.625 5.054C15.625 4.88141 15.7649 4.7415 15.9375 4.7415C16.5638 4.7415 16.8846 5.1703 17.1064 5.46664C17.1127 5.47504 17.1189 5.48333 17.125 5.4915C17.3713 5.81994 17.519 5.9915 17.8125 5.9915C18.106 5.9915 18.2537 5.81994 18.5 5.4915C18.5061 5.48333 18.5123 5.47504 18.5186 5.46664C18.7404 5.1703 19.0612 4.7415 19.6875 4.7415C19.8601 4.7415 20 4.88141 20 5.054C20 5.22659 19.8601 5.3665 19.6875 5.3665C19.394 5.3665 19.2463 5.53806 19 5.8665C18.9939 5.87467 18.9877 5.88296 18.9814 5.89136C18.7596 6.1877 18.4388 6.6165 17.8125 6.6165C17.1862 6.6165 16.8654 6.1877 16.6436 5.89136C16.6373 5.88296 16.6311 5.87467 16.625 5.8665C16.3787 5.53806 16.231 5.3665 15.9375 5.3665C15.7649 5.3665 15.625 5.22659 15.625 5.054ZM15.625 7.554C15.625 7.38141 15.7649 7.2415 15.9375 7.2415C16.5638 7.2415 16.8846 7.6703 17.1064 7.96664C17.1127 7.97504 17.1189 7.98333 17.125 7.9915C17.3713 8.31994 17.519 8.4915 17.8125 8.4915C18.106 8.4915 18.2537 8.31994 18.5 7.9915C18.5061 7.98333 18.5123 7.97504 18.5186 7.96664C18.7404 7.6703 19.0612 7.2415 19.6875 7.2415C19.8601 7.2415 20 7.38141 20 7.554C20 7.72659 19.8601 7.8665 19.6875 7.8665C19.394 7.8665 19.2463 8.03806 19 8.3665C18.9939 8.37467 18.9877 8.38296 18.9814 8.39136C18.7596 8.6877 18.4388 9.1165 17.8125 9.1165C17.1862 9.1165 16.8654 8.6877 16.6436 8.39136C16.6373 8.38296 16.6311 8.37467 16.625 8.3665C16.3787 8.03806 16.231 7.8665 15.9375 7.8665C15.7649 7.8665 15.625 7.72659 15.625 7.554Z" fill="black"/>
</svg>