<svg width="20" height="20" viewBox="0 0 20 20" fill="none" xmlns="http://www.w3.org/2000/svg">
<path fill-rule="evenodd" clip-rule="evenodd" d="M0 1.6129C0 0.722121 0.722121 0 1.6129 0H18.3871C19.2779 0 20 0.722121 20 1.6129V18.3871C20 19.2779 19.2779 20 18.3871 20H1.6129C0.722121 20 0 19.2779 0 18.3871V1.6129ZM1.6129 0.645161C1.07843 0.645161 0.645161 1.07843 0.645161 1.6129V18.3871C0.645161 18.9216 1.07843 19.3548 1.6129 19.3548H18.3871C18.9216 19.3548 19.3548 18.9216 19.3548 18.3871V1.6129C19.3548 1.07843 18.9216 0.645161 18.3871 0.645161H1.6129ZM3.54839 2.58065C3.01392 2.58065 2.58065 3.01392 2.58065 3.54839C2.58065 4.08286 3.01392 4.51613 3.54839 4.51613C4.08286 4.51613 4.51613 4.08286 4.51613 3.54839C4.51613 3.01392 4.08286 2.58065 3.54839 2.58065ZM1.93548 3.54839C1.93548 2.65761 2.65761 1.93548 3.54839 1.93548C4.43917 1.93548 5.16129 2.65761 5.16129 3.54839C5.16129 4.43917 4.43917 5.16129 3.54839 5.16129C2.65761 5.16129 1.93548 4.43917 1.93548 3.54839ZM16.4516 2.58065C15.9171 2.58065 15.4839 3.01392 15.4839 3.54839C15.4839 4.08286 15.9171 4.51613 16.4516 4.51613C16.9861 4.51613 17.4194 4.08286 17.4194 3.54839C17.4194 3.01392 16.9861 2.58065 16.4516 2.58065ZM14.8387 3.54839C14.8387 2.65761 15.5608 1.93548 16.4516 1.93548C17.3424 1.93548 18.0645 2.65761 18.0645 3.54839C18.0645 4.43917 17.3424 5.16129 16.4516 5.16129C15.5608 5.16129 14.8387 4.43917 14.8387 3.54839ZM6.12903 4.51613C6.12903 4.33797 6.27346 4.19355 6.45161 4.19355L13.5484 4.19355C13.7265 4.19355 13.871 4.33797 13.871 4.51613C13.871 4.69429 13.7265 4.83871 13.5484 4.83871L6.45161 4.83871C6.27346 4.83871 6.12903 4.69428 6.12903 4.51613ZM2.58065 8.70968C2.58065 7.8189 3.30277 7.09677 4.19355 7.09677H15.8065C16.6972 7.09677 17.4194 7.8189 17.4194 8.70968V15.8065C17.4194 16.6972 16.6972 17.4194 15.8065 17.4194H4.19355C3.30277 17.4194 2.58065 16.6972 2.58065 15.8065V8.70968ZM4.19355 7.74194C3.65908 7.74194 3.22581 8.17521 3.22581 8.70968V15.8065C3.22581 16.3409 3.65908 16.7742 4.19355 16.7742H15.8065C16.3409 16.7742 16.7742 16.3409 16.7742 15.8065V8.70968C16.7742 8.17521 16.3409 7.74194 15.8065 7.74194H4.19355ZM9.30066 9.82106C9.39948 9.9693 9.35943 10.1696 9.21119 10.2684L8.8095 10.5362C8.27137 10.895 8.27137 11.6857 8.8095 12.0444C9.67241 12.6197 9.73884 13.8633 8.94213 14.5273L8.27103 15.0865C8.13416 15.2006 7.93076 15.1821 7.8167 15.0452C7.70265 14.9084 7.72114 14.7049 7.858 14.5909L8.52911 14.0316C8.99452 13.6438 8.95572 12.9173 8.45163 12.5813C7.53045 11.9671 7.53045 10.6135 8.45163 9.99939L8.85332 9.7316C9.00156 9.63277 9.20184 9.67283 9.30066 9.82106ZM12.2039 9.82106C12.3027 9.9693 12.2627 10.1696 12.1144 10.2684L11.7127 10.5362C11.1746 10.895 11.1746 11.6857 11.7127 12.0444C12.5756 12.6197 12.6421 13.8633 11.8454 14.5273L11.1743 15.0865C11.0374 15.2006 10.834 15.1821 10.7199 15.0452C10.6059 14.9084 10.6244 14.7049 10.7612 14.5909L11.4323 14.0316C11.8977 13.6438 11.8589 12.9173 11.3549 12.5813C10.4337 11.9671 10.4337 10.6135 11.3549 9.99939L11.7565 9.7316C11.9048 9.63277 12.1051 9.67283 12.2039 9.82106Z" fill="black"/>
</svg>