<svg width="20" height="20" viewBox="0 0 20 20" fill="none" xmlns="http://www.w3.org/2000/svg">
<path fill-rule="evenodd" clip-rule="evenodd" d="M4.0625 2.1875C4.0625 0.979377 5.04188 0 6.25 0H13.75C14.9581 0 15.9375 0.979377 15.9375 2.1875V17.8125C15.9375 19.0206 14.9581 20 13.75 20H6.25C5.04188 20 4.0625 19.0206 4.0625 17.8125V2.1875ZM6.25 0.625C5.38706 0.625 4.6875 1.32456 4.6875 2.1875V2.8125H15.3125V2.1875C15.3125 1.32456 14.6129 0.625 13.75 0.625H6.25ZM15.3125 3.4375H4.6875V16.5625H15.3125V3.4375ZM15.3125 17.1875H4.6875V17.8125C4.6875 18.6754 5.38706 19.375 6.25 19.375H13.75C14.6129 19.375 15.3125 18.6754 15.3125 17.8125V17.1875ZM8.75 1.875C8.75 1.70241 8.88991 1.5625 9.0625 1.5625H10.9375C11.1101 1.5625 11.25 1.70241 11.25 1.875C11.25 2.04759 11.1101 2.1875 10.9375 2.1875H9.0625C8.88991 2.1875 8.75 2.04759 8.75 1.875ZM9.375 18.125C9.375 17.9524 9.51491 17.8125 9.6875 17.8125H10.3125C10.4851 17.8125 10.625 17.9524 10.625 18.125C10.625 18.2976 10.4851 18.4375 10.3125 18.4375H9.6875C9.51491 18.4375 9.375 18.2976 9.375 18.125Z" fill="black"/>
</svg>