<svg width="20" height="20" viewBox="0 0 20 20" fill="none" xmlns="http://www.w3.org/2000/svg">
<path fill-rule="evenodd" clip-rule="evenodd" d="M0 3.125C0 2.26205 0.699555 1.5625 1.5625 1.5625H18.4375C19.3004 1.5625 20 2.26206 20 3.125V14.375C20 15.2379 19.3004 15.9375 18.4375 15.9375H11.4062V16.9267L16.3059 17.8175C16.4757 17.8484 16.5883 18.0111 16.5575 18.1809C16.5266 18.3507 16.3639 18.4633 16.1941 18.4325L11.0656 17.5H8.93443L3.8059 18.4325C3.6361 18.4633 3.47341 18.3507 3.44254 18.1809C3.41167 18.0111 3.52429 17.8484 3.6941 17.8175L8.59375 16.9267V15.9375H1.5625C0.699555 15.9375 0 15.2379 0 14.375V3.125ZM9.21875 15.9375V16.875H10.7812V15.9375H9.21875ZM1.5625 2.1875C1.04473 2.1875 0.625 2.60723 0.625 3.125V14.375C0.625 14.8928 1.04473 15.3125 1.5625 15.3125H18.4375C18.9553 15.3125 19.375 14.8928 19.375 14.375V3.125C19.375 2.60723 18.9553 2.1875 18.4375 2.1875H1.5625Z" fill="black"/>
</svg>