<svg width="20" height="20" viewBox="0 0 20 20" fill="none" xmlns="http://www.w3.org/2000/svg">
<path fill-rule="evenodd" clip-rule="evenodd" d="M8.0472 0.625C7.89057 0.625 7.75814 0.740947 7.73744 0.896199L7.23193 4.6875H12.7681L12.2626 0.896199C12.2419 0.740947 12.1094 0.625 11.9528 0.625H8.0472ZM13.3986 4.6875L12.8821 0.813597C12.82 0.347841 12.4227 0 11.9528 0H8.0472C7.57732 0 7.18002 0.34784 7.11792 0.813596L6.6014 4.6875H6.25C5.38706 4.6875 4.6875 5.38706 4.6875 6.25V13.75C4.6875 14.6129 5.38706 15.3125 6.25 15.3125H6.6014L7.11792 19.1864C7.18002 19.6522 7.57732 20 8.0472 20H11.9528C12.4227 20 12.82 19.6522 12.8821 19.1864L13.3986 15.3125H13.75C14.6129 15.3125 15.3125 14.6129 15.3125 13.75V13.4375C15.8303 13.4375 16.25 13.0178 16.25 12.5V10.625C16.25 10.1072 15.8303 9.6875 15.3125 9.6875V8.39812C15.8516 8.25936 16.25 7.76995 16.25 7.1875C16.25 6.59612 15.8393 6.10067 15.2876 5.97075C15.156 5.24105 14.5176 4.6875 13.75 4.6875H13.3986ZM15.3125 6.64611V7.72889C15.4993 7.62082 15.625 7.41884 15.625 7.1875C15.625 6.95616 15.4993 6.75418 15.3125 6.64611ZM15.3125 10.3125V12.8125C15.4851 12.8125 15.625 12.6726 15.625 12.5V10.625C15.625 10.4524 15.4851 10.3125 15.3125 10.3125ZM12.7681 15.3125H7.23193L7.73744 19.1038C7.75814 19.2591 7.89057 19.375 8.0472 19.375H11.9528C12.1094 19.375 12.2419 19.2591 12.2626 19.1038L12.7681 15.3125ZM6.25 5.3125C5.73223 5.3125 5.3125 5.73223 5.3125 6.25V13.75C5.3125 14.2678 5.73223 14.6875 6.25 14.6875H13.75C14.2678 14.6875 14.6875 14.2678 14.6875 13.75V6.25C14.6875 5.73223 14.2678 5.3125 13.75 5.3125H6.25Z" fill="black"/>
</svg>