<svg xmlns="http://www.w3.org/2000/svg" width="24" height="24" fill="none" viewBox="0 0 24 24">
  <rect width="24" height="24" fill="#00BC52" rx="12"/>
  <path stroke="#fff" stroke-linecap="round" stroke-linejoin="round" d="M17.185 14.551v1.556a1.037 1.037 0 01-1.13 1.037 10.26 10.26 0 01-4.475-1.592 10.11 10.11 0 01-3.111-3.111 10.261 10.261 0 01-1.592-4.496 1.037 1.037 0 011.032-1.13h1.555a1.037 1.037 0 011.037.892c.066.497.188.986.363 1.457a1.036 1.036 0 01-.233 1.094l-.659.658a8.296 8.296 0 003.112 3.111l.658-.658a1.037 1.037 0 011.094-.233c.47.175.96.297 1.457.363a1.037 1.037 0 01.892 1.052z"/>
</svg>
