<svg xmlns="http://www.w3.org/2000/svg" width="24" height="24" fill="none" viewBox="0 0 24 24">
  <path fill="#7C529D" d="M0 12C0 5.373 5.373 0 12 0s12 5.373 12 12-5.373 12-12 12S0 18.627 0 12z"/>
  <g clip-path="url(#clip0_3:612)">
    <path fill="#fff" d="M18.75 8.279c-.36-1.38-1.86-2.82-3.24-3.12-2.22-.42-4.5-.42-6.72 0-1.38.3-2.88 1.74-3.24 3.12a13.05 13.05 0 000 5.7c.3 1.32 1.74 2.7 3.06 3.06v1.5c0 .54.66.84 1.02.42l1.5-1.62h1.02c1.14 0 2.22-.12 3.36-.3 1.38-.3 2.88-1.74 3.24-3.12.42-1.8.42-3.72 0-5.64zm-1.2 5.46c-.24.9-1.38 1.98-2.28 2.22-1.2.24-2.4.3-3.6.3h-.06l-1.14 1.14-1.2 1.2c-.06.12-.24 0-.24-.12v-2.52c0-.06 0-.06-.06-.06-.9-.18-2.04-1.32-2.28-2.22a12.46 12.46 0 010-5.16c.24-.9 1.38-1.98 2.28-2.22 2.1-.42 4.2-.42 6.24 0 .9.18 2.04 1.32 2.28 2.22.42 1.74.42 3.48.06 5.22zm-2.94-.9c-.18-.12-.42-.3-.6-.42a.65.65 0 00-.66 0c-.18.18-.3.48-.6.54-.18 0-.3-.06-.48-.12-.9-.36-1.5-1.08-1.8-2.04a.382.382 0 010-.36c.06-.06.06-.12.12-.12.06-.06.12-.12.18-.12.24-.18.3-.54.18-.78-.24-.42-.54-.84-.84-1.2-.18-.18-.36-.24-.54-.12-.24.12-.48.3-.72.54-.18.24-.42.6-.24.9.12.36.3.72.42 1.02.36.72.78 1.38 1.32 1.98.96 1.08 2.1 1.74 3.36 2.28.12.06.24.06.42.12.12-.06.24-.06.36-.12.36-.18.66-.54.84-.9.12-.24.06-.42-.12-.6-.24-.18-.42-.36-.6-.48zm-2.46-5.28c-.06 0 1.68.06 0 0zm0 0h-.12c-.12 0-.24.12-.18.24 0 .12.18.18.3.18.18 0 .36 0 .54.06 1.26.24 2.22 1.26 2.4 2.52.06.24.06.48.06.72 0 .12.06.24.18.24s.18-.12.18-.24c0-.3-.06-.6-.12-.84-.18-1.68-1.56-2.82-3.24-2.88zm2.16 3.3v.18c.06.18.3.12.36 0v-.12-.3-.12c-.12-.78-.54-1.38-1.2-1.74-.36-.18-.72-.24-1.08-.3-.12 0-.18.06-.18.18s.06.18.18.18.18 0 .3.06c.24.06.42.12.66.18.3.18.6.42.78.78.06.3.18.66.18 1.02zm-.66 0c.06 0 .12-.06.12-.12v-.18c-.06-.78-.54-1.08-1.2-1.14-.12 0-.18.06-.24.18 0 .12.06.18.18.24.12 0 .18 0 .3.06.06 0 .18.06.24.12.12.12.24.24.3.42 0 .06 0 .18.06.24 0 .12.12.18.24.18-.06 0-.12 0 0 0z"/>
  </g>
  <defs>
    <clipPath id="clip0_3:612">
      <path fill="#fff" d="M0 0h14.4v14.4H0z" transform="translate(4.8 4.8)"/>
    </clipPath>
  </defs>
</svg>
