<svg xmlns="http://www.w3.org/2000/svg" width="24" height="24" fill="none" viewBox="0 0 24 24">
  <path fill="#31C4ED" d="M0 12C0 5.373 5.373 0 12 0s12 5.373 12 12-5.373 12-12 12S0 18.627 0 12z"/>
  <g clip-path="url(#clip0_3:621)">
    <path fill="#fff" fill-rule="evenodd" d="M15.283 15.008c-.294.406-.724.73-1.28.962-.55.225-1.212.337-1.967.337-.905 0-1.661-.156-2.254-.468a2.97 2.97 0 01-1.037-.906c-.268-.381-.406-.756-.406-1.124a.78.78 0 01.263-.588.94.94 0 01.655-.237c.219 0 .406.062.556.187.144.119.268.306.368.531.113.25.231.463.363.631.124.163.3.3.53.406.225.106.537.163.912.163.524 0 .949-.113 1.268-.325.318-.213.468-.469.468-.775a.76.76 0 00-.244-.587 1.74 1.74 0 00-.674-.362 11.687 11.687 0 00-1.155-.281A9.425 9.425 0 0110 12.084c-.45-.187-.818-.45-1.08-.78a1.539 1.539 0 01-.212-.35 2.062 2.062 0 01-.194-.894c0-.468.144-.893.425-1.255.28-.363.693-.644 1.224-.837.524-.194 1.142-.288 1.848-.288.562 0 1.055.069 1.467.194.419.125.762.3 1.043.512.275.213.48.437.612.681.131.237.2.475.2.706a.855.855 0 01-.256.6.885.885 0 01-.65.262c-.23 0-.418-.056-.537-.169-.118-.106-.237-.262-.374-.493a2.094 2.094 0 00-.562-.687c-.213-.156-.569-.238-1.056-.238-.45 0-.817.088-1.092.263-.262.168-.387.362-.387.593 0 .144.037.262.125.363.093.106.212.206.374.28.163.082.337.15.506.194.031.007.069.019.112.032.181.043.431.106.762.18.512.107.98.232 1.393.363.418.131.78.294 1.073.487.306.194.538.438.712.737.169.3.256.669.256 1.094-.012.5-.162.962-.45 1.374zm2.922-1.637c.1-.425.144-.874.144-1.33 0-.157-.007-.313-.02-.469-.243-3.21-2.959-5.74-6.274-5.74-.369 0-.725.03-1.074.093a3.672 3.672 0 00-1.942-.556c-2.017 0-3.647 1.612-3.647 3.604 0 .663.181 1.287.5 1.818-.05.225-.081.45-.1.687a5.645 5.645 0 00-.025.563c0 3.43 2.816 6.21 6.294 6.21.393 0 .78-.038 1.155-.107a3.741 3.741 0 001.723.425c2.017 0 3.653-1.612 3.653-3.605a3.793 3.793 0 00-.387-1.593z" clip-rule="evenodd"/>
  </g>
  <defs>
    <clipPath id="clip0_3:621">
      <path fill="#fff" d="M0 0h13.8v13.8H0z" transform="translate(4.8 4.8)"/>
    </clipPath>
  </defs>
</svg>
