<svg xmlns="http://www.w3.org/2000/svg" width="24" height="24" fill="none" viewBox="0 0 24 24">
  <path fill="#2CA5E0" d="M0 12C0 5.373 5.373 0 12 0s12 5.373 12 12-5.373 12-12 12S0 18.627 0 12z"/>
  <g clip-path="url(#clip0_3:615)">
    <path fill="#fff" d="M17.854 7.295c0 .3-.12.66-.18.96-.6 2.82-1.14 5.58-1.74 8.4-.06.18-.06.3-.18.48-.12.24-.36.3-.6.24a.967.967 0 01-.42-.24c-.9-.66-1.74-1.32-2.64-1.98-.12-.06-.18-.06-.24 0l-1.32 1.32a.77.77 0 01-.6.24c-.18 0-.24-.06-.3-.24-.24-.84-.54-1.74-.84-2.58-.12-.3-.18-.6-.3-.9-.06-.12-.06-.18-.18-.18-.84-.24-1.74-.54-2.58-.84-.12-.06-.24-.06-.3-.12-.24-.18-.24-.36-.06-.54.12-.12.3-.24.48-.3 1.14-.48 2.34-.9 3.48-1.38 2.52-1.02 5.04-1.98 7.56-3h.06c.54-.12.9.12.9.66zm-7.86 8.64c.06 0 .06-.06.06-.06.06-.6.12-1.26.18-1.86 0-.18.06-.3.18-.36 1.62-1.5 3.3-3 4.92-4.56l.3-.3c.06-.06.12-.06.06-.18-.06-.06-.12-.06-.18-.06-.12 0-.24.06-.36.12-2.04 1.32-4.02 2.58-6.06 3.9-.12.06-.12.12-.06.24.24.78.48 1.56.72 2.28.06.36.12.6.24.84z"/>
  </g>
  <defs>
    <clipPath id="clip0_3:615">
      <path fill="#fff" d="M0 0h13.2v10.8H0z" transform="translate(4.8 6.6)"/>
    </clipPath>
  </defs>
</svg>
