<svg xmlns="http://www.w3.org/2000/svg" width="24" height="24" fill="none" viewBox="0 0 24 24">
  <path fill="#FF671F" d="M0 12C0 5.373 5.373 0 12 0s12 5.373 12 12-5.373 12-12 12S0 18.627 0 12z"/>
  <g clip-path="url(#clip0_3:624)">
    <path fill="#fff" d="M9.364 11.274a9.09 9.09 0 003.954 3.954l1.32-1.32a.597.597 0 01.612-.144 6.844 6.844 0 002.142.342c.33 0 .6.27.6.6V16.8c0 .33-.27.6-.6.6-5.634 0-10.2-4.566-10.2-10.2 0-.33.27-.6.6-.6h2.1c.33 0 .6.27.6.6 0 .75.12 1.47.342 2.142a.602.602 0 01-.15.612l-1.32 1.32z"/>
  </g>
  <defs>
    <clipPath id="clip0_3:624">
      <path fill="#fff" d="M0 0h11.4v10.8H0z" transform="translate(6.6 6.6)"/>
    </clipPath>
  </defs>
</svg>
